<svg xmlns="http://www.w3.org/2000/svg" xmlns:xlink="http://www.w3.org/1999/xlink" width="500" zoomAndPan="magnify" viewBox="0 0 375 374.999991" height="500" preserveAspectRatio="xMidYMid meet" version="1.0"><rect x="-37.5" width="450" fill="#ffffff" y="-37.499999" height="449.999989" fill-opacity="1"/><rect x="-37.5" width="450" fill="#ffffff" y="-37.499999" height="449.999989" fill-opacity="1"/><rect x="-37.5" width="450" fill="#000000" y="-37.499999" height="449.999989" fill-opacity="1"/><path fill="#08fd0c" d="M 320.625 54.5625 C 285.5625 19.3125 238.875 0 189.1875 0 C 86.8125 0 3.375 83.4375 3.375 185.8125 C 3.375 218.625 12 250.5 28.125 278.625 L 1.875 375 L 100.3125 349.125 C 127.5 363.9375 158.0625 371.8125 189.1875 371.8125 C 291.5625 371.8125 375 288.375 375 186 C 375 136.3125 355.6875 89.625 320.625 54.5625 Z M 189.1875 340.3125 C 161.4375 340.3125 134.25 332.8125 110.4375 318.75 L 104.8125 315.375 L 46.3125 330.75 L 61.875 273.75 L 58.125 267.9375 C 42.75 243.375 34.5 214.875 34.5 185.8125 C 34.5 100.6875 103.875 31.3125 189 31.3125 C 230.25 31.3125 269.0625 47.4375 298.125 76.6875 C 327.375 105.9375 343.3125 144.75 343.3125 186 C 343.6875 271.125 274.3125 340.3125 189.1875 340.3125 Z M 273.9375 224.8125 C 269.25 222.5625 246.375 211.3125 242.25 209.625 C 237.9375 208.125 234.9375 207.375 231.75 211.875 C 228.5625 216.5625 219.75 227.0625 217.125 230.0625 C 214.5 233.25 211.6875 233.625 207 231.1875 C 202.3125 228.9375 187.3125 223.875 169.6875 208.125 C 155.8125 195.75 146.625 180.5625 143.8125 175.875 C 141.1875 171.1875 143.4375 168.75 145.875 166.3125 C 147.9375 164.25 150.5625 160.875 152.8125 158.25 C 155.0625 155.625 156 153.5625 157.5 150.5625 C 159 147.375 158.25 144.75 157.125 142.5 C 156 140.25 146.625 117.375 142.875 108 C 139.125 99 135.1875 100.125 132.375 99.9375 C 129.5625 99.9375 126.5625 99.9375 123.375 99.9375 C 120.1875 99.9375 115.3125 101.0625 111 105.75 C 106.875 110.4375 94.875 121.6875 94.875 144.5625 C 94.875 167.4375 111.5625 189.5625 113.8125 192.5625 C 116.0625 195.75 146.625 242.625 193.125 262.6875 C 204.1875 267.5625 212.8125 270.375 219.5625 272.4375 C 230.625 276 240.75 275.4375 248.8125 274.3125 C 257.8125 273 276.375 263.0625 280.125 252.1875 C 284.0625 241.3125 284.0625 232.125 282.75 230.0625 C 281.4375 228 278.625 227.0625 273.9375 224.8125 Z M 273.9375 224.8125 " fill-opacity="1" fill-rule="nonzero"/></svg>