<svg xmlns="http://www.w3.org/2000/svg" xmlns:xlink="http://www.w3.org/1999/xlink" width="500" zoomAndPan="magnify" viewBox="0 0 375 374.999991" height="500" preserveAspectRatio="xMidYMid meet" version="1.0"><rect x="-37.5" width="450" fill="#ffffff" y="-37.499999" height="449.999989" fill-opacity="1"/><rect x="-37.5" width="450" fill="#000000" y="-37.499999" height="449.999989" fill-opacity="1"/><path fill="#08fd0c" d="M 187.121094 -0.195312 C 83.835938 -0.195312 -0.195312 83.835938 -0.195312 187.121094 C -0.195312 290.410156 83.835938 374.441406 187.121094 374.441406 C 290.410156 374.441406 374.441406 290.410156 374.441406 187.121094 C 374.441406 83.835938 290.410156 -0.195312 187.121094 -0.195312 Z M 233.707031 193.71875 L 203.230469 193.71875 C 203.230469 242.40625 203.230469 302.355469 203.230469 302.355469 L 158.074219 302.355469 C 158.074219 302.355469 158.074219 242.988281 158.074219 193.71875 L 136.605469 193.71875 L 136.605469 155.328125 L 158.074219 155.328125 L 158.074219 130.496094 C 158.074219 112.710938 166.523438 84.921875 203.648438 84.921875 L 237.09375 85.050781 L 237.09375 122.316406 C 237.09375 122.316406 216.761719 122.316406 212.808594 122.316406 C 208.851562 122.316406 203.238281 124.292969 203.238281 132.773438 L 203.238281 155.335938 L 237.644531 155.335938 Z M 233.707031 193.71875 " fill-opacity="1" fill-rule="nonzero"/></svg>