<svg xmlns="http://www.w3.org/2000/svg" xmlns:xlink="http://www.w3.org/1999/xlink" width="500" zoomAndPan="magnify" viewBox="0 0 375 374.999991" height="500" preserveAspectRatio="xMidYMid meet" version="1.0"><defs><clipPath id="id1"><path d="M 0 56.25 L 375 56.25 L 375 337.5 L 0 337.5 Z M 0 56.25 " clip-rule="nonzero"/></clipPath></defs><rect x="-37.5" width="450" fill="#ffffff" y="-37.499999" height="449.999989" fill-opacity="1"/><rect x="-37.5" width="450" fill="#000000" y="-37.499999" height="449.999989" fill-opacity="1"/><g clip-path="url(#id1)"><path fill="#08fd0c" d="M 35.15625 56.25 C 15.871094 56.25 0.0898438 71.996094 0 91.285156 C 0 91.285156 0 91.316406 0 91.34375 C 0 91.375 0 91.375 0 91.40625 L 0 302.34375 C 0 321.660156 15.839844 337.5 35.15625 337.5 L 339.84375 337.5 C 359.160156 337.5 375 321.660156 375 302.34375 L 375 91.40625 C 375 91.375 375 91.375 375 91.34375 C 375 91.316406 375 91.285156 375 91.285156 C 374.910156 71.996094 359.132812 56.25 339.84375 56.25 Z M 55.480469 71.875 L 319.550781 71.875 L 187.5 163.917969 Z M 29.480469 72.789062 L 187.5 182.960938 L 345.550781 72.789062 C 353.546875 75.203125 359.3125 82.464844 359.375 91.316406 C 359.34375 92.960938 357.667969 96.257812 355.226562 98.914062 C 352.753906 101.597656 350.34375 103.277344 350.34375 103.277344 L 350.3125 103.339844 L 187.5 218.574219 L 24.6875 103.339844 L 24.660156 103.277344 C 24.660156 103.277344 22.246094 101.597656 19.777344 98.914062 C 17.335938 96.257812 15.65625 92.960938 15.625 91.316406 C 15.6875 82.464844 21.453125 75.203125 29.480469 72.789062 Z M 15.625 116.035156 C 15.625 116.035156 15.6875 116.09375 15.6875 116.09375 L 15.746094 116.125 L 15.746094 116.15625 L 39.0625 132.636719 L 39.0625 321.875 L 35.15625 321.875 C 24.292969 321.875 15.625 313.207031 15.625 302.34375 Z M 359.375 116.035156 L 359.375 302.34375 C 359.375 313.207031 350.707031 321.875 339.84375 321.875 L 335.9375 321.875 L 335.9375 132.636719 L 359.253906 116.15625 L 359.253906 116.125 C 359.253906 116.125 359.375 116.035156 359.375 116.035156 Z M 54.6875 143.683594 L 187.5 237.675781 L 320.3125 143.683594 L 320.3125 321.875 L 54.6875 321.875 Z M 54.6875 143.683594 " fill-opacity="1" fill-rule="nonzero"/></g></svg>