<svg xmlns="http://www.w3.org/2000/svg" xmlns:xlink="http://www.w3.org/1999/xlink" width="500" zoomAndPan="magnify" viewBox="0 0 375 374.999991" height="500" preserveAspectRatio="xMidYMid meet" version="1.0"><path fill="#ffffff" d="M 284.277344 28.066406 C 284.332031 28.066406 286.574219 28.433594 286.628906 28.441406 C 286.667969 28.847656 286.707031 29.25 286.75 29.65625 C 291.519531 27.660156 291.566406 32.386719 291.699219 35.234375 C 347.777344 32.441406 341.941406 43.488281 304.660156 49.621094 C 300.269531 50.359375 295.851562 50.90625 291.433594 51.425781 C 291.742188 52.953125 292.675781 52.40625 292.933594 58.460938 C 293.285156 58.257812 293.617188 57.972656 294.042969 57.933594 C 294.46875 58.210938 294.394531 58.417969 292.589844 63.164062 C 292.597656 64.972656 292.746094 66.78125 292.804688 68.59375 C 292.515625 68.675781 292.226562 68.757812 291.941406 68.84375 C 292.433594 83.050781 292.929688 97.253906 293.425781 111.460938 C 298.273438 111.625 300.554688 110.855469 300.605469 114.679688 C 303.929688 114.398438 307.269531 114.320312 310.601562 114.210938 C 314.46875 114.074219 318.339844 114.019531 322.210938 113.933594 C 322.207031 113.359375 322.207031 112.785156 322.210938 112.207031 C 322.539062 112.082031 322.867188 111.960938 323.195312 111.839844 C 323.238281 111.507812 323.277344 111.179688 323.320312 110.851562 C 323.113281 110.683594 322.90625 110.519531 322.707031 110.355469 C 322.824219 110.1875 322.949219 110.023438 323.074219 109.859375 C 322.949219 109.613281 322.828125 109.367188 322.707031 109.121094 C 322.859375 109 323.019531 108.878906 323.179688 108.761719 C 322.878906 108.394531 322.726562 107.941406 322.660156 107.476562 C 322.0625 107.519531 321.511719 107.746094 320.984375 108.003906 C 320.417969 109.996094 318.160156 111.367188 318.644531 108 C 318.898438 106.445312 319.941406 103.691406 320.175781 103.394531 C 320.414062 103.167969 320.851562 103.035156 321.109375 103.308594 C 321.882812 104.148438 320.847656 105.859375 322.832031 105.578125 C 323.054688 103.589844 322.714844 103.503906 324.308594 103.410156 C 325.339844 75.457031 326.03125 75.332031 325.667969 103.535156 C 326.234375 103.597656 326.777344 103.773438 327.28125 104.042969 C 327.074219 104.167969 326.871094 104.296875 326.667969 104.421875 C 327.550781 105.800781 326.507812 108.152344 326.859375 109.363281 C 326.410156 109.53125 325.886719 109.699219 325.71875 110.203125 C 326.128906 110.335938 326.546875 110.453125 326.960938 110.585938 C 326.777344 110.679688 326.589844 110.773438 326.410156 110.871094 C 326.367188 111.1875 326.328125 111.511719 326.285156 111.835938 C 326.574219 112.082031 326.863281 112.332031 327.152344 112.582031 C 327.109375 113.117188 327.066406 113.648438 327.027344 114.179688 C 371.496094 115.96875 374.644531 127.703125 329.871094 127.03125 C 329.867188 127.773438 329.871094 128.519531 329.867188 129.261719 C 328.628906 130.605469 329.214844 130.21875 328.183594 130.511719 C 327.835938 130.953125 327.308594 131.144531 326.777344 131.25 C 326.558594 132.507812 326.535156 133.792969 326.410156 135.0625 C 326.160156 135.144531 325.914062 135.230469 325.671875 135.316406 C 325.253906 151.695312 324.847656 168.078125 324.433594 184.460938 C 324.792969 184.539062 325.300781 184.503906 325.507812 184.878906 C 325.625 185.519531 325.605469 186.179688 325.671875 186.832031 C 326.613281 186.984375 327.664062 187.015625 328.433594 187.660156 C 328.3125 188.945312 328.328125 190.238281 328.261719 191.53125 C 327.398438 191.691406 326.535156 191.859375 325.671875 192.023438 C 325.679688 193.429688 325.695312 194.871094 325.304688 196.234375 C 325.199219 196.628906 324.96875 196.96875 324.691406 197.261719 C 324.421875 208.195312 324.191406 219.136719 323.941406 230.074219 C 326.664062 230.480469 327.277344 230.882812 327.082031 232.175781 C 327.855469 232.773438 335.054688 253.890625 335.296875 254.613281 C 335.875 254.863281 336.488281 254.882812 335.691406 256.761719 C 335.796875 256.960938 342.851562 273.363281 343.710938 279.730469 C 345.390625 280.269531 344.921875 280.269531 345.667969 282.773438 C 345.546875 282.878906 345.425781 282.988281 345.324219 283.109375 C 345.359375 283.273438 345.425781 283.425781 345.488281 283.589844 C 345.433594 283.652344 345.324219 283.773438 345.265625 283.835938 C 345.375 284.023438 345.484375 284.214844 345.601562 284.410156 C 345.429688 284.847656 345.757812 285.179688 346.050781 285.453125 C 346.121094 286.019531 346.347656 286.640625 346.0625 287.179688 C 344.777344 289.316406 338.078125 288.621094 340.363281 285.761719 C 340.414062 285.496094 340.179688 285.296875 340.066406 285.089844 C 340.273438 284.886719 340.320312 284.621094 340.207031 284.359375 C 340.308594 284.257812 340.414062 284.160156 340.523438 284.058594 C 340.347656 283.507812 339.25 282.933594 341.246094 281.570312 C 341.011719 277.402344 335.066406 261.984375 333.574219 258.121094 C 333.164062 258.246094 332.75 258.371094 332.339844 258.496094 C 334.851562 270.273438 337.367188 282.046875 339.875 293.824219 C 352.371094 301.375 354.582031 302.003906 356.191406 305.046875 C 358.394531 304.40625 363.203125 310.945312 362.929688 311.191406 C 360.136719 314.070312 356.105469 315.296875 355.242188 311.441406 C 355.128906 311.308594 354.988281 311.199219 354.871094 311.089844 C 354.929688 311.027344 355.054688 310.898438 355.117188 310.835938 C 354.867188 310.621094 354.570312 310.476562 354.261719 310.378906 C 354.339844 310.246094 354.417969 310.109375 354.492188 309.980469 C 354.292969 309.683594 353.078125 309.414062 353.570312 307.636719 C 351.449219 304.871094 344.058594 300.628906 340.988281 298.894531 C 341.238281 300.40625 341.472656 301.921875 341.730469 303.429688 C 343.476562 303.84375 343.203125 305.011719 343.449219 306.636719 C 343.296875 306.804688 343.085938 306.945312 343.015625 307.171875 C 343.039062 307.527344 343.390625 307.699219 343.640625 307.894531 C 343.5 308.039062 343.207031 308.128906 343.25 308.375 C 343.367188 308.59375 343.582031 308.734375 343.765625 308.90625 C 343.644531 308.984375 343.527344 309.070312 343.410156 309.15625 C 343.570312 309.558594 343.871094 309.875 344.199219 310.15625 C 344.289062 310.679688 344.460938 311.191406 344.515625 311.726562 C 344.285156 312.558594 341.738281 312.671875 340.878906 312.703125 C 339.023438 311.945312 337.960938 310.976562 338.382812 308.851562 C 338.871094 308.640625 338.757812 308.125 338.582031 307.738281 C 339.046875 307.484375 338.71875 307.003906 338.539062 306.671875 C 338.65625 306.582031 338.777344 306.496094 338.902344 306.414062 C 338.765625 306.09375 338.523438 305.847656 338.246094 305.652344 C 338.167969 304.558594 338.449219 304.089844 339.625 303.445312 C 339.382812 301.472656 339.136719 299.507812 338.890625 297.539062 C 335.71875 295.722656 332.546875 293.914062 329.378906 292.101562 C 329.25 293.171875 329.128906 294.242188 329.003906 295.3125 C 319.433594 297.835938 322.890625 297.019531 316.292969 297.445312 C 315.765625 297.753906 304.027344 306.074219 301.949219 307.546875 C 301.90625 307.875 301.863281 308.203125 301.824219 308.53125 C 300.519531 308.703125 299.210938 308.847656 297.910156 309.03125 C 297.1875 310.054688 296.1875 310.25 294.429688 310.144531 C 294.382812 310.34375 294.109375 312.011719 293.265625 311.414062 C 293.128906 311.203125 293.039062 310.96875 292.902344 310.761719 C 292.460938 310.675781 292.304688 311.265625 291.929688 311.40625 C 291.589844 311.390625 291.351562 311.117188 291.105469 310.921875 C 291.382812 309.808594 290.394531 308.984375 289.597656 308.402344 C 287.707031 317.574219 285.808594 326.742188 283.921875 335.914062 C 284.992188 336.757812 284.945312 338.207031 284.777344 339.742188 C 284.175781 340.207031 284.132812 340.027344 284.347656 341.085938 C 284.253906 341.1875 284.15625 341.292969 284.082031 341.414062 C 284.074219 341.675781 284.253906 341.894531 284.359375 342.125 C 283.78125 342.679688 283.714844 342.578125 284.394531 343.402344 C 284.226562 344.285156 284.402344 345.367188 283.679688 346.039062 L 283.652344 346.09375 L 283.464844 346.09375 C 281.472656 345.109375 277.996094 347.152344 279.574219 342.183594 C 279.804688 342.070312 280.128906 342.039062 280.246094 341.777344 C 280.273438 341.511719 280.109375 341.289062 280.011719 341.0625 C 280.167969 340.96875 280.351562 340.90625 280.484375 340.777344 C 280.609375 340.480469 280.363281 340.210938 280.261719 339.957031 C 280.449219 339.863281 280.6875 339.832031 280.828125 339.664062 C 280.953125 339.308594 280.714844 338.972656 280.589844 338.65625 C 280.832031 337.03125 280.632812 336.054688 282.429688 335.683594 C 284.375 326.386719 286.300781 317.089844 288.234375 307.792969 C 287.863281 307.625 287.492188 307.460938 287.125 307.296875 C 287.164062 306.675781 287.207031 306.0625 287.246094 305.445312 C 284.410156 302.484375 281.574219 299.519531 278.730469 296.5625 C 277.144531 296.773438 274.664062 296.425781 273.070312 296.171875 C 273.46875 296.945312 274.253906 300.683594 268.855469 299.269531 C 269.269531 295.617188 267.972656 298.390625 269.449219 290.886719 C 267.980469 289.945312 267.375 287.832031 266.980469 286.046875 C 242.828125 299.492188 244.273438 298.105469 242.789062 300.453125 C 244.078125 301.5625 241.371094 305.808594 239.433594 305.949219 C 239.519531 306.683594 239.597656 307.421875 239.683594 308.160156 C 239.96875 308.160156 240.257812 308.160156 240.546875 308.164062 C 240.753906 309.472656 240.953125 310.78125 241.164062 312.09375 C 242.292969 312.199219 242.492188 312.183594 242.824219 313.21875 C 243.007812 313.136719 243.199219 313.054688 243.390625 312.976562 C 245.023438 303.160156 248.804688 318.539062 245.546875 317.96875 C 245.40625 317.886719 243.371094 315.089844 243.285156 314.96875 C 242.640625 316.511719 242.039062 316.136719 240.175781 316.8125 C 240.34375 318.164062 240.503906 319.515625 240.671875 320.867188 C 240.898438 320.882812 241.140625 320.867188 241.367188 320.941406 C 242.351562 321.6875 246.46875 333.050781 244.125 334.601562 C 236.785156 339.492188 235.351562 329.65625 237.707031 321.382812 C 237.910156 321.335938 238.117188 321.296875 238.324219 321.257812 C 238.078125 319.898438 237.828125 318.542969 237.582031 317.183594 C 237.128906 317.140625 236.675781 317.097656 236.222656 317.054688 C 235.808594 314.421875 235.402344 311.789062 234.988281 309.152344 C 235.234375 308.984375 235.480469 308.820312 235.730469 308.65625 C 234.949219 303.386719 234.164062 298.117188 233.386719 292.847656 C 233.175781 292.71875 232.972656 292.59375 232.765625 292.46875 C 232.640625 291.480469 232.519531 290.496094 232.394531 289.507812 C 232.019531 289.878906 231.652344 290.246094 231.28125 290.617188 C 230.871094 290.371094 230.457031 290.125 230.046875 289.878906 C 226.546875 294.777344 223.046875 299.675781 219.546875 304.578125 C 219.625 304.742188 219.707031 304.90625 219.792969 305.074219 C 218.195312 307.09375 214.519531 312.648438 212.363281 310.15625 C 205.164062 317.640625 194.554688 323.488281 184.871094 326.6875 C 185.164062 330.144531 178.335938 331.234375 178 327.933594 C 167.726562 330.421875 156.058594 328.914062 146.65625 325.09375 C 146.488281 325.335938 146.324219 325.582031 146.160156 325.832031 C 145.007812 325.828125 143.855469 325.832031 142.703125 325.832031 C 141.792969 324.886719 140.890625 323.9375 139.984375 322.992188 C 139.980469 322.617188 139.984375 322.246094 139.980469 321.878906 C 130.210938 317.410156 121.34375 309.339844 115.769531 301.492188 C 115.476562 301.65625 115.1875 301.824219 114.894531 301.988281 C 111.890625 300.835938 110.222656 298.082031 112.058594 296.058594 C 110.472656 293.761719 109.355469 291.183594 108.230469 288.640625 C 107.125 292.308594 106.003906 295.96875 104.902344 299.632812 C 105.148438 299.675781 105.390625 299.71875 105.640625 299.765625 C 105.101562 302.273438 104.570312 304.785156 104.03125 307.296875 C 103.332031 307.296875 102.632812 307.296875 101.933594 307.296875 C 101.566406 308.527344 101.191406 309.753906 100.832031 310.984375 C 102.898438 312.035156 100.40625 332.65625 92.945312 322.238281 C 92.703125 321.859375 92.453125 321.382812 92.578125 320.929688 C 93.984375 318.816406 96.320312 310.640625 98.472656 310.125 C 98.8125 308.9375 99.128906 307.746094 99.464844 306.558594 C 97.566406 305.589844 99.398438 306.847656 94.644531 302.355469 C 94.726562 302.1875 94.808594 302.023438 94.894531 301.863281 C 96.085938 302.191406 97.277344 302.519531 98.472656 302.847656 C 99.558594 301.851562 99.085938 302.953125 100.449219 298.40625 C 100.734375 298.359375 101.023438 298.316406 101.3125 298.277344 C 102.347656 294.738281 103.371094 291.191406 104.40625 287.652344 C 100.289062 289.582031 98.878906 290.042969 90.441406 295.5625 C 90.398438 295.890625 90.359375 296.222656 90.316406 296.550781 C 83.878906 296.316406 85.535156 297.746094 81.910156 297.296875 C 81 297.867188 80.054688 298.453125 78.957031 298.550781 C 78.953125 298.292969 78.953125 298.039062 78.953125 297.785156 C 78.703125 297.90625 78.457031 298.03125 78.210938 298.15625 C 78.003906 298.070312 77.800781 297.988281 77.597656 297.910156 C 77.554688 297.578125 77.511719 297.246094 77.46875 296.921875 C 73.929688 295.230469 70.386719 293.542969 66.84375 291.855469 C 51.847656 317.613281 53.070312 314.804688 50.664062 321.257812 C 52.363281 325.597656 50.371094 322.804688 50.734375 325.15625 C 50.441406 325.476562 50.296875 325.292969 50.734375 326.132812 C 50.207031 326.410156 50.773438 330.738281 47.8125 329.542969 C 45.15625 328.632812 43.710938 328.484375 43.675781 327.191406 C 43.695312 326.585938 44.019531 326.054688 44.230469 325.503906 C 44.96875 325.296875 44.992188 325.476562 45.140625 324.28125 C 45.289062 324.179688 45.484375 324.128906 45.582031 323.96875 C 45.625 323.738281 45.558594 323.507812 45.527344 323.285156 C 45.960938 322.863281 46.066406 323.074219 45.742188 322.097656 C 46.796875 320.082031 46.933594 319.253906 48.816406 319.503906 C 51.679688 312.636719 48.695312 318.410156 64.859375 290.128906 C 64.484375 289.191406 64.480469 288.398438 65.589844 287.519531 C 65.800781 287.601562 66.015625 287.6875 66.226562 287.777344 C 67.753906 285.0625 69.273438 282.34375 70.800781 279.628906 C 68.6875 276.273438 66.828125 276.792969 64.867188 273.078125 C 50.523438 283.964844 51.179688 283.355469 50.847656 284.019531 C 50.617188 284.488281 50.484375 285.082031 50.78125 285.558594 C 50.988281 285.890625 51.074219 286.355469 50.769531 286.667969 C 50.179688 287.347656 50.097656 288.304688 50.222656 289.160156 C 50.414062 289.933594 47.199219 290.378906 46.421875 289.792969 C 45.410156 289.066406 44.902344 287.898438 44.273438 286.871094 C 43.21875 285.3125 70.367188 261.484375 79.449219 261.816406 C 79.363281 250 79.285156 238.1875 79.199219 226.371094 C 75.289062 225.589844 68.183594 223.882812 66.71875 220.175781 C 64.457031 260.042969 66.882812 252.429688 59.140625 261.648438 C 58.589844 262.296875 58.074219 262.976562 57.449219 263.554688 C 54.238281 266.707031 54.429688 269.785156 54.867188 274.1875 C 53.589844 275.402344 52.480469 274.878906 51.171875 273.722656 C 52.136719 272.640625 52.257812 271.117188 52.398438 269.742188 C 52.601562 269.613281 52.804688 269.484375 53.011719 269.363281 C 53.128906 268.601562 53.207031 267.835938 53.328125 267.074219 C 53.621094 265.824219 54.355469 264.71875 55.199219 263.765625 C 56.058594 262.773438 56.914062 261.78125 57.769531 260.785156 C 69.949219 247.113281 61.175781 230.320312 65.476562 216.609375 C 62.03125 215.003906 62.925781 214.730469 63.375 210.960938 C 62.484375 209.886719 62.988281 209.035156 63.875 207.828125 C 63.882812 207.246094 63.878906 206.667969 63.882812 206.085938 C 62.519531 205.824219 62.441406 206.050781 62.105469 206.96875 C 61.414062 206.839844 60.726562 206.722656 60.035156 206.601562 C 59.832031 205.082031 60.171875 203.542969 60.785156 202.152344 C 61.484375 202.238281 62.1875 202.316406 62.890625 202.402344 C 62.890625 202.824219 62.890625 203.25 62.890625 203.671875 C 67.113281 204.511719 65.945312 203.445312 66.96875 170.035156 C 66.308594 169.988281 65.648438 169.949219 64.984375 169.90625 C 64.378906 168.515625 64.171875 166.816406 64.972656 165.457031 C 65.636719 165.460938 66.304688 165.460938 66.96875 165.460938 C 67.054688 163.152344 67.132812 160.847656 67.214844 158.542969 C 67.378906 158.417969 67.542969 158.289062 67.710938 158.167969 C 67.882812 154.601562 68.152344 155.15625 67.078125 154.421875 C 66.90625 153.472656 67.082031 152.425781 67.796875 151.734375 C 68.023438 150.730469 67.847656 150.757812 68.972656 150.980469 C 69.167969 150.824219 69.367188 150.667969 69.566406 150.511719 C 69.820312 149.179688 68.03125 146.101562 80.0625 145.320312 C 80.375 109.425781 81.621094 118.421875 76.613281 106.175781 C 74.328125 106.128906 72.792969 101.1875 73.753906 99.464844 C 67.144531 83.90625 68.273438 82.523438 62.03125 83.886719 C 61.175781 83.839844 60.382812 83.105469 60.507812 82.203125 C 61.917969 81.34375 62.957031 80.289062 63.96875 80.761719 C 64.195312 80.613281 64.421875 80.464844 64.648438 80.316406 C 64.460938 77.019531 61.492188 79.800781 41.847656 67.144531 C -14.425781 30.625 63.90625 37.546875 109.273438 70.390625 C 138.707031 91.3125 116.449219 98.96875 70.800781 81.566406 C 71.003906 82.226562 71.214844 82.882812 71.414062 83.542969 C 71.085938 83.789062 70.757812 84.035156 70.429688 84.285156 C 72.488281 88.851562 74.542969 93.421875 76.601562 97.988281 C 81.054688 96.757812 85.464844 95.980469 85.511719 100.59375 C 85.878906 100.550781 86.246094 100.511719 86.613281 100.46875 C 87.027344 99.230469 87.4375 97.996094 87.847656 96.761719 C 88.261719 96.84375 88.671875 96.925781 89.082031 97.011719 C 89.84375 103.75 89.875 102.019531 88.960938 106.648438 C 88.671875 106.523438 88.382812 106.398438 88.09375 106.273438 C 87.636719 105.246094 87.191406 104.214844 86.734375 103.1875 C 86.328125 103.226562 85.917969 103.269531 85.511719 103.3125 C 85.484375 104.332031 85.335938 105.613281 84.269531 106.082031 C 84.21875 107.875 84.183594 109.667969 84.140625 111.464844 C 83.855469 111.632812 83.566406 111.792969 83.277344 111.960938 C 83.308594 116.289062 89.976562 128.390625 91.628906 132.269531 C 91.71875 132.960938 91.335938 134.988281 88.097656 133.960938 C 84.691406 125.601562 89.09375 133.765625 83.410156 122.75 C 83.304688 130.1875 83.242188 137.625 83.152344 145.0625 C 85.28125 144.558594 88.84375 144.632812 91.046875 144.703125 C 90.097656 142.582031 94.542969 132.382812 95.613281 131.59375 C 97.71875 131.863281 99.824219 132.089844 101.929688 132.347656 C 103.160156 130.59375 102.792969 130.453125 104.023438 129.621094 C 105.945312 130.003906 106.984375 129.382812 106.140625 133.210938 C 109.253906 133.679688 110.0625 133.980469 110.21875 133.339844 C 109.953125 132.59375 109.128906 132.296875 111.089844 131.578125 C 111.78125 129.585938 111.292969 129.390625 110.285156 129.363281 C 108.753906 127.457031 117.363281 125.460938 114.941406 128.546875 C 114.417969 129.027344 112.921875 129.609375 113.152344 132.21875 C 114.28125 132.269531 115.40625 132.296875 116.53125 132.351562 C 117.054688 131.332031 116.910156 129.238281 118.386719 129.945312 C 119.6875 125.335938 119.207031 127.882812 121.074219 119.390625 C 120.476562 117.9375 120.773438 117.597656 121.675781 117 C 121.929688 115.4375 122.070312 115.746094 122.695312 115.738281 C 124.105469 114.421875 125.972656 113.78125 127.730469 113.074219 C 127.746094 111.761719 127.695312 111.433594 129.128906 111.9375 C 136.90625 105.546875 153.390625 107.746094 163.226562 109.800781 C 165.730469 110.292969 168.214844 110.886719 170.6875 111.535156 C 175.050781 112.652344 179.347656 114.101562 183.398438 116.09375 C 185.769531 117.28125 188.078125 118.660156 190.039062 120.464844 C 193.851562 124.082031 192.921875 125.75 192.621094 128.628906 C 194.773438 131.191406 192.613281 132.257812 191.996094 136.054688 C 191.707031 136.007812 191.417969 135.96875 191.132812 135.929688 C 190.882812 137.121094 190.640625 138.316406 190.390625 139.507812 C 190.554688 139.714844 190.71875 139.921875 190.882812 140.132812 C 190.554688 141.820312 190.226562 143.507812 189.898438 145.195312 C 190.703125 145.460938 191.542969 145.640625 192.335938 145.957031 C 193.488281 147.09375 192.09375 149.457031 191.011719 150.757812 C 190.351562 150.589844 189.691406 150.425781 189.03125 150.261719 C 188.25 154.785156 187.460938 159.304688 186.691406 163.828125 C 186.921875 164.203125 187.175781 164.617188 187.109375 165.074219 C 187.070312 165.535156 186.75 165.882812 186.457031 166.207031 C 186.703125 166.867188 186.894531 167.601562 186.683594 168.304688 C 186.570312 168.75 186.265625 169.109375 185.957031 169.433594 C 185.859375 170.398438 185.664062 171.375 185.148438 172.207031 C 184.855469 172.644531 184.953125 173.234375 184.625 173.648438 C 184.40625 173.921875 184.0625 173.710938 183.800781 173.644531 C 176.289062 177.40625 165.992188 177.03125 157.65625 175.964844 C 151.765625 175.175781 145.933594 173.929688 140.230469 172.253906 C 139.769531 183.609375 139.339844 194.964844 138.863281 206.320312 C 139.898438 204.867188 143.988281 202.960938 145.308594 202.875 C 150.042969 197.476562 156.898438 193.128906 163.332031 190.167969 C 163.210938 189.671875 163.085938 189.175781 162.960938 188.683594 C 165.277344 186.96875 166.742188 187.113281 167.804688 187.558594 C 167.945312 187.484375 168.089844 187.414062 168.230469 187.339844 C 168.546875 186.109375 169.386719 185.859375 170.972656 185.34375 C 172.496094 183.296875 175.710938 184.183594 175.976562 185.84375 C 185.644531 183.472656 196.933594 184.484375 206.179688 187.808594 C 208.0625 185.398438 212.910156 187.898438 212.152344 190.546875 C 221 194.410156 229.375 201.855469 235.089844 209.402344 C 236.722656 208.90625 239.117188 211.066406 239.21875 211.261719 C 239.515625 211.796875 239.441406 212.429688 239.375 213.007812 C 239.304688 213.480469 239.648438 213.941406 239.457031 214.40625 C 239.3125 214.789062 238.917969 214.964844 238.589844 215.160156 C 243.207031 223.589844 247.011719 234.636719 246.609375 244.039062 C 246.976562 244.039062 247.34375 244.035156 247.714844 244.039062 C 249.980469 249.15625 247.667969 251.355469 245.988281 251.230469 C 246.207031 256.855469 242.640625 265.511719 240.308594 270.601562 C 250.769531 264.964844 246.679688 266.933594 252.375 264.441406 C 252.179688 263.96875 252.09375 263.386719 252.421875 262.953125 C 253.363281 262.34375 253.832031 263.5625 254.046875 264.050781 C 258.976562 262.597656 255.617188 263.117188 260.070312 262.199219 C 260.316406 256.113281 260.570312 250.03125 260.804688 243.949219 C 259.0625 242.304688 260.792969 239.707031 258.960938 236.453125 C 256.472656 239.472656 254.144531 235.433594 253.683594 233.953125 C 255.4375 233.863281 254.5625 235.027344 258.292969 234.535156 C 258.519531 233.007812 260.050781 233.128906 261.675781 233.285156 C 261.84375 226.410156 262.003906 219.535156 262.171875 212.660156 C 261.265625 212.613281 260.359375 212.578125 259.457031 212.53125 C 257.242188 223.15625 255.886719 221.414062 255.621094 215.425781 C 254.328125 214.757812 255.058594 214.265625 254.835938 213.425781 C 254.457031 212.820312 253.664062 212.769531 253.03125 212.640625 C 253.046875 211.824219 253.160156 211.011719 253.121094 210.195312 C 252.613281 208.597656 251.46875 208.15625 252.675781 206.796875 C 251.875 202.855469 249.589844 203.878906 246.109375 194.742188 C 230.5 192 230.667969 192.410156 231.898438 187.449219 C 228.558594 186.699219 228.386719 186.386719 228.664062 188.0625 C 229.332031 188.34375 229.992188 188.636719 230.652344 188.929688 C 228.515625 189.203125 228.0625 189.738281 222.769531 186.84375 C 222.378906 187.390625 221.707031 187.449219 221.105469 187.574219 C 219.976562 188.789062 218.667969 187.746094 215.140625 185.992188 C 215.25 185.949219 215.464844 185.863281 215.574219 185.820312 C 215.367188 185.496094 215.054688 185.273438 214.730469 185.082031 C 214.078125 178.964844 213.058594 177.605469 218.285156 175.097656 C 214.316406 174.566406 210.292969 173.949219 206.582031 172.378906 C 203.789062 171.125 200.773438 168.9375 201.867188 166.0625 C 200.867188 163.972656 201.066406 165.179688 201.019531 163.113281 C 200.730469 162.824219 200.441406 162.535156 200.152344 162.25 C 200.152344 161.503906 200.152344 160.765625 200.152344 160.023438 C 200.355469 159.980469 200.5625 159.9375 200.769531 159.898438 C 200.769531 159.898438 200.382812 156.515625 200.523438 140.132812 C 199.734375 140.046875 198.949219 139.964844 198.160156 139.882812 C 197.269531 138.289062 197.679688 136.332031 198.539062 134.8125 C 199.199219 134.859375 199.859375 134.898438 200.523438 134.941406 C 200.566406 133.128906 200.605469 131.316406 200.648438 129.503906 C 200.851562 129.503906 201.058594 129.503906 201.265625 129.503906 C 201.261719 128.433594 201.265625 127.363281 201.265625 126.292969 C 200.890625 126.128906 200.523438 125.960938 200.152344 125.796875 C 200.191406 125.015625 200.234375 124.234375 200.277344 123.453125 C 200.5625 123.410156 200.851562 123.367188 201.140625 123.324219 C 201.183594 122.789062 201.222656 122.253906 201.265625 121.71875 C 201.546875 121.761719 201.828125 121.800781 202.113281 121.84375 C 206.929688 109.816406 263.363281 109.441406 264.648438 128.859375 C 265.375 129.753906 265.496094 130.160156 264.523438 131.136719 C 264.46875 133.0625 264.441406 134.988281 264.394531 136.914062 C 264.722656 137.246094 265.054688 137.578125 265.386719 137.90625 C 267.277344 137.613281 266.070312 137.625 269.707031 137.785156 C 269.746094 137.246094 269.789062 136.714844 269.832031 136.179688 C 268.34375 135.238281 267.597656 135.070312 267.828125 134.328125 C 268.214844 133.960938 268.785156 134.34375 270.058594 134.683594 C 270.855469 134.363281 271.703125 134.152344 272.132812 134.980469 C 272.175781 135.214844 272.09375 135.453125 272.070312 135.6875 C 275.046875 137.765625 274.648438 138.347656 271.933594 137.410156 C 271.847656 137.773438 271.769531 138.132812 271.695312 138.5 C 272.09375 139.085938 272.207031 139.800781 272.199219 140.5 L 275.988281 140.5 C 276.257812 137.714844 277.234375 137.390625 280.085938 138.148438 C 280.125 138.808594 280.167969 139.46875 280.210938 140.125 C 283.011719 140.242188 286.664062 140.328125 287.203125 140.425781 C 288.433594 141.203125 289.339844 146.347656 289.601562 147.773438 C 293.199219 150.496094 288.953125 154.398438 288.601562 157.917969 C 290.183594 158.277344 291.71875 158.800781 293.230469 159.382812 C 293.3125 159.074219 293.515625 158.828125 293.777344 158.644531 C 294.070312 158.738281 294.367188 158.824219 294.664062 158.914062 C 294.625 156.117188 294.582031 153.320312 294.542969 150.527344 C 293.582031 151.089844 292.367188 151 291.449219 150.398438 C 291.167969 140.878906 290.875 131.363281 290.585938 121.84375 C 287.796875 120.707031 286.429688 119.820312 288.238281 118.261719 C 287.917969 115.753906 287.890625 112.636719 290.214844 111.675781 C 289.761719 97.398438 289.3125 83.117188 288.855469 68.839844 C 288.644531 68.796875 288.445312 68.757812 288.242188 68.714844 C 288.15625 66.613281 288.078125 64.515625 287.992188 62.414062 C 287.699219 62.371094 287.414062 62.332031 287.125 62.289062 C 285.660156 59.070312 285.28125 55.296875 286.378906 51.910156 C 277.5625 52.539062 252.5 54.300781 244.527344 50.289062 C 243.867188 49.929688 243.125 49.476562 242.914062 48.710938 C 242.839844 47.765625 243.511719 46.972656 244.183594 46.394531 C 250.445312 41.261719 274.289062 37.492188 282.285156 36.347656 C 280.960938 29.902344 283.265625 30.753906 284.65625 30.414062 C 284.523438 29.628906 284.421875 28.84375 284.277344 28.066406 M 123.660156 119.109375 C 123.410156 119.457031 122.929688 119.457031 122.542969 119.507812 C 122.171875 119.941406 121.984375 120.527344 122.167969 121.085938 C 123.488281 121.214844 124.1875 121.3125 123.8125 122.585938 C 124.210938 122.914062 124.617188 123.230469 125.011719 123.566406 C 125.398438 122.222656 125.679688 120.851562 126.023438 119.496094 C 125.519531 119.027344 124.90625 118.636719 124.65625 117.960938 C 124.105469 118.105469 123.941406 118.691406 123.660156 119.109375 M 298.988281 124.316406 C 298.902344 124.929688 298.820312 125.550781 298.742188 126.167969 C 298.449219 126.371094 298.160156 126.578125 297.875 126.789062 C 298.136719 157.679688 298.078125 155.582031 298.171875 156.863281 C 298.28125 155.683594 298.691406 154.308594 299.863281 154.441406 C 300.238281 154.597656 300.496094 154.9375 300.8125 155.183594 C 300.8125 155.183594 300.222656 163.230469 300.222656 163.230469 C 300.425781 163.480469 300.632812 163.726562 300.84375 163.976562 C 300.796875 165.25 300.761719 166.527344 300.714844 167.804688 C 300.386719 167.886719 300.0625 167.96875 299.738281 168.050781 C 300.113281 169.699219 299.804688 169.71875 299.234375 169.953125 C 299.277344 170.386719 299.316406 170.824219 299.359375 171.265625 C 301.519531 171.234375 304.355469 171.386719 306.15625 172.613281 C 306.230469 174.554688 306.320312 176.492188 306.402344 178.429688 C 310.585938 178.140625 306.457031 179.933594 304.050781 181.398438 C 303.96875 181.726562 303.886719 182.050781 303.804688 182.378906 C 302.015625 182.523438 300.257812 182.921875 298.496094 183.25 C 298.449219 185.84375 298.410156 188.433594 298.371094 191.027344 C 301.132812 191.453125 300.746094 196.332031 299.859375 197 C 299.75 198.859375 299.75 200.824219 298.875 202.511719 C 298.792969 205.601562 298.765625 208.699219 298.703125 211.792969 C 298.46875 225.628906 298.234375 239.464844 298 253.300781 C 310.011719 235.199219 312.558594 233.777344 312.558594 233.777344 C 312.609375 231.488281 311.71875 227.683594 314.667969 232.039062 C 315.324219 231.007812 316.644531 230.839844 317.761719 230.910156 C 318.402344 230.664062 319.058594 230.449219 319.742188 230.324219 C 319.949219 219.410156 320.144531 208.496094 320.355469 197.582031 C 320.382812 197.152344 320.113281 196.777344 320.085938 196.351562 C 319.929688 194.914062 320.023438 193.464844 320.113281 192.023438 C 319.578125 191.855469 319.042969 191.691406 318.507812 191.527344 C 318.289062 184.917969 317.871094 184.714844 321.472656 184.230469 C 321.925781 167.882812 322.378906 151.535156 322.832031 135.1875 C 322.625 135.105469 322.421875 135.023438 322.222656 134.945312 C 321.929688 135.46875 321.875 136.125 319.621094 135.191406 C 319.617188 134.863281 319.617188 134.535156 319.621094 134.207031 C 320.792969 133.59375 320.578125 133.488281 321.101562 131.480469 C 320.730469 131.355469 320.359375 131.230469 319.992188 131.109375 C 320.03125 130.820312 320.070312 130.53125 320.113281 130.246094 C 319.703125 129.667969 319.289062 129.09375 318.878906 128.515625 C 318.957031 127.898438 319.039062 127.28125 319.125 126.667969 C 312.371094 126.332031 305.628906 125.605469 298.988281 124.316406 M 202.375 135.308594 C 202.867188 135.308594 203.363281 135.308594 203.859375 135.308594 C 203.777344 134.195312 203.691406 133.085938 203.609375 131.972656 C 203.203125 131.648438 202.792969 131.324219 202.394531 130.992188 C 202.351562 132.429688 202.386719 133.871094 202.375 135.308594 M 260.925781 136.667969 C 261.671875 136.625 262.421875 136.601562 263.167969 136.53125 C 261.917969 135.042969 261.46875 135.339844 260.925781 136.667969 M 257.601562 136.300781 C 257.601562 137.453125 257.597656 138.605469 257.601562 139.757812 C 258.011719 139.59375 258.421875 139.429688 258.835938 139.265625 C 258.832031 138.933594 258.832031 138.605469 258.835938 138.28125 C 258.667969 138.195312 258.503906 138.109375 258.34375 138.027344 C 258.382812 137.328125 258.425781 136.628906 258.464844 135.929688 C 258.175781 136.050781 257.886719 136.175781 257.601562 136.300781 M 100.328125 137.910156 C 100.328125 138.195312 100.328125 138.476562 100.332031 138.761719 C 102.0625 140.332031 102.539062 142.375 101.070312 144.578125 C 106.308594 144.417969 111.574219 144.675781 116.761719 145.441406 C 116.679688 145.039062 116.601562 144.636719 116.515625 144.238281 C 114.949219 143.832031 114.972656 142.472656 115.273438 140.871094 C 113.457031 140.617188 111.636719 140.378906 109.820312 140.125 C 109.289062 139.570312 108.875 138.816406 109.074219 138.027344 C 108.066406 137.941406 107.054688 137.871094 106.042969 137.78125 C 106.042969 139.136719 104.40625 138.714844 101.933594 138.519531 C 101.933594 138.234375 101.933594 137.949219 101.933594 137.667969 C 101.410156 137.816406 100.871094 137.894531 100.328125 137.910156 M 202.378906 140.253906 C 201.882812 160.011719 201.796875 157.230469 202.25 159.648438 C 202.707031 159.242188 203.15625 158.828125 203.609375 158.414062 C 203.695312 152.527344 203.773438 146.636719 203.859375 140.746094 C 203.363281 140.582031 202.871094 140.417969 202.378906 140.253906 M 272.308594 144.945312 C 272.675781 148.191406 272.238281 147.539062 265.261719 147.542969 C 264.78125 148.554688 264.328125 149.730469 263.285156 150.292969 C 263.277344 151.105469 263.285156 151.917969 263.285156 152.730469 C 263.078125 152.8125 262.871094 152.894531 262.671875 152.980469 C 262.644531 153.15625 262.628906 153.335938 262.609375 153.511719 C 262.457031 152.34375 261.804688 149.992188 260.328125 149.375 C 260.308594 151.277344 260.324219 153.175781 260.320312 155.074219 C 264.9375 155.257812 269.554688 155.484375 274.164062 155.84375 C 276.640625 156.027344 279.132812 156.1875 281.570312 156.683594 C 281.566406 156.480469 281.566406 156.277344 281.566406 156.074219 C 280.351562 154.988281 279.460938 153.414062 279.539062 151.746094 C 279.589844 150.351562 280.304688 149.082031 281.195312 148.042969 C 281.199219 147.5 281.195312 146.957031 281.199219 146.417969 C 280.902344 146.261719 280.578125 146.042969 280.226562 146.125 C 280.113281 146.21875 280.007812 146.320312 279.914062 146.425781 C 278.5625 146.390625 277.214844 146.347656 275.867188 146.304688 C 275.625 145.9375 275.453125 145.476562 275.722656 145.070312 C 274.585938 145.027344 273.445312 144.996094 272.308594 144.945312 M 257.734375 146.75 C 257.582031 149.484375 257.484375 152.222656 257.355469 154.957031 C 257.804688 155.035156 258.257812 155.121094 258.710938 155.203125 C 258.40625 147.066406 258.664062 148.675781 257.734375 146.75 M 68.578125 154.957031 C 68.496094 156.027344 68.410156 157.09375 68.332031 158.164062 C 68.832031 158.890625 68.675781 157.667969 68.824219 165.464844 C 69.246094 165.503906 69.902344 165.617188 70.058594 165.089844 C 69.972656 164.425781 69.117188 162.316406 70.175781 161.347656 C 70.28125 159.546875 70.34375 157.746094 70.429688 155.945312 C 69.816406 155.613281 69.195312 155.285156 68.578125 154.957031 M 257.601562 156.683594 C 257.601562 157.304688 257.601562 157.921875 257.601562 158.539062 C 258.011719 158.785156 258.421875 159.03125 258.835938 159.28125 C 258.796875 158.414062 258.753906 157.550781 258.714844 156.683594 C 258.339844 156.683594 257.96875 156.683594 257.601562 156.683594 M 68.457031 170.03125 C 68.160156 182.144531 67.886719 194.257812 67.582031 206.371094 C 69.394531 207.398438 68.738281 208.664062 69.941406 169.902344 C 69.445312 169.945312 68.949219 169.988281 68.457031 170.03125 M 215.492188 181.519531 C 215.054688 182.410156 215.050781 185.316406 216.59375 184.257812 C 216.539062 183.757812 216.503906 183.261719 216.460938 182.765625 C 215.121094 181.976562 215.671875 181.917969 216.09375 181.46875 C 215.894531 181.371094 215.621094 181.273438 215.492188 181.519531 M 218.054688 183.738281 C 217.648438 184.75 217.714844 185.164062 218.929688 185.496094 C 218.933594 185.078125 218.933594 184.65625 218.933594 184.238281 C 218.640625 184.070312 218.347656 183.902344 218.054688 183.738281 M 222.144531 184.117188 C 222.269531 184.773438 222.390625 185.429688 222.515625 186.085938 C 225.117188 185.894531 223.882812 185.816406 227.085938 187.449219 C 227.53125 184.257812 228.757812 184.347656 222.144531 184.117188 M 220.417969 184.855469 C 220.457031 185.230469 220.5 185.605469 220.53125 185.984375 C 221.761719 186.730469 221.777344 185.464844 221.40625 184.609375 C 221.074219 184.691406 220.746094 184.773438 220.417969 184.855469 M 291.898438 185.675781 C 290.492188 186.273438 288.996094 186.636719 287.503906 186.957031 C 287.457031 187.367188 287.417969 187.777344 287.375 188.191406 C 287.828125 188.148438 288.285156 188.113281 288.738281 188.0625 C 289.429688 187.414062 288.46875 187.722656 293.800781 186.710938 C 293.800781 186.007812 293.800781 185.308594 293.800781 184.605469 C 293.125 184.886719 292.582031 185.40625 291.898438 185.675781 M 235.21875 187.933594 C 234.394531 188.886719 234.699219 190.269531 234.867188 191.402344 C 236.296875 191.617188 237.730469 191.796875 239.15625 192.027344 C 239.386719 192.289062 239.699219 192.46875 240.0625 192.441406 C 252.671875 192.023438 233.488281 190.28125 250.933594 192.269531 C 250.761719 191.320312 250.601562 190.375 250.4375 189.425781 C 248.441406 189.367188 248.902344 189.988281 235.21875 187.933594 M 271.554688 189.316406 C 266.164062 189.671875 260.757812 189.667969 255.359375 189.550781 C 258.039062 194.585938 266.875 191.421875 282.917969 188.222656 C 279.144531 188.726562 275.355469 189.109375 271.554688 189.316406 M 288.984375 189.429688 C 289.402344 190.800781 290.214844 193.085938 291.320312 192.167969 C 291.085938 190.773438 292.378906 190.601562 293.800781 190.527344 C 293.757812 189.871094 293.71875 189.21875 293.675781 188.5625 C 292.113281 188.851562 290.546875 189.136719 288.984375 189.429688 M 251.792969 189.550781 C 252 190.539062 252.203125 191.527344 252.414062 192.515625 C 253.113281 192.601562 253.8125 192.679688 254.515625 192.761719 C 253.933594 191.695312 253.359375 190.621094 252.78125 189.550781 C 252.453125 189.550781 252.121094 189.550781 251.792969 189.550781 M 283.417969 190.9375 C 281.273438 191.289062 279.144531 191.753906 277.003906 192.144531 C 276.078125 193.359375 267.625 204.515625 266.644531 205.863281 C 266.574219 206.710938 266.355469 214.644531 265.753906 233.632812 C 268.734375 233.699219 267.902344 237.375 267.855469 238.601562 C 267.605469 238.765625 267.359375 238.929688 267.113281 239.097656 C 266.949219 240.496094 266.785156 241.898438 266.621094 243.296875 C 266.375 243.5 266.125 243.707031 265.878906 243.914062 C 265.796875 249.929688 265.714844 255.945312 265.632812 261.957031 C 265.875 262.238281 266.117188 262.523438 266.367188 262.804688 C 271.40625 263.175781 284.3125 271.597656 284.914062 272.570312 C 287.324219 269.066406 289.789062 265.597656 292.167969 262.078125 C 292.230469 260.378906 292.921875 203.261719 292.933594 202.398438 C 292.933594 202.398438 291.207031 194.242188 291.207031 194.242188 C 290.914062 194.242188 290.617188 194.226562 290.332031 194.277344 C 289.636719 194.617188 289.335938 196.796875 289.226562 197.582031 C 288.8125 197.578125 288.398438 197.578125 287.988281 197.582031 C 287.238281 195.40625 287.128906 193.074219 287.128906 190.796875 C 285.984375 191.429688 284.628906 191.183594 283.414062 190.9375 M 267.617188 194.246094 C 268.015625 196.457031 267.792969 195.921875 266.992188 200.300781 C 267.195312 200.421875 267.398438 200.542969 267.609375 200.667969 C 269.667969 198.035156 271.722656 195.398438 273.785156 192.769531 C 271.726562 193.25 269.671875 193.75 267.617188 194.246094 M 248.214844 194.863281 C 248.859375 196.308594 250.328125 200.535156 251.675781 200.609375 C 250.9375 198.960938 251.113281 197.085938 251.417969 195.359375 C 250.351562 195.191406 249.28125 195.027344 248.214844 194.863281 M 252.160156 195.34375 C 251.179688 198.816406 252.617188 201.597656 253.183594 202.113281 C 254.933594 202.855469 255.171875 204.839844 255.390625 206.738281 C 255.644531 205.277344 255.953125 203.761719 255.71875 202.28125 C 255.242188 201.261719 255.335938 201.242188 255.75 196.230469 C 255.21875 196.242188 254.640625 196.242188 254.222656 195.867188 C 252.425781 195.757812 253.355469 195.570312 252.160156 195.34375 M 261.675781 201.289062 C 262.101562 203.386719 261.339844 203.554688 260.558594 203.019531 C 260.410156 202.480469 260.234375 201.945312 260.074219 201.414062 C 259.824219 201.410156 259.578125 201.410156 259.335938 201.410156 C 258.539062 202.679688 258.742188 200.78125 258.589844 208.945312 C 259.410156 208.996094 260.234375 209.023438 261.058594 209.074219 C 261.59375 208.417969 262.125 207.757812 262.664062 207.097656 C 262.710938 205.285156 262.746094 203.472656 262.789062 201.660156 C 262.417969 201.53125 262.046875 201.410156 261.675781 201.289062 M 84.761719 227.355469 C 84.804688 238.597656 84.84375 249.839844 84.886719 261.082031 C 87.121094 261.234375 91.605469 261.585938 93.339844 263.054688 C 92.40625 263.449219 91.882812 263.066406 91.0625 263.5625 C 91.527344 264.207031 93.332031 264.496094 95.136719 264.796875 C 96.132812 252.730469 97.109375 240.664062 98.105469 228.601562 C 97 228.640625 95.894531 228.519531 94.792969 228.4375 C 91.441406 228.128906 88.101562 227.746094 84.761719 227.355469 M 103.550781 228.972656 C 102.347656 228.929688 101.164062 228.695312 99.960938 228.710938 C 98.761719 240.859375 97.566406 253.011719 96.375 265.160156 C 97.757812 265.636719 100.464844 266.550781 101.558594 267.46875 C 101.21875 266.542969 100.90625 265.601562 100.574219 264.671875 C 100.984375 263.558594 101.402344 262.445312 101.8125 261.332031 C 102.136719 261.328125 102.46875 261.332031 102.796875 261.332031 C 103.355469 255.683594 104.453125 250.082031 106.097656 244.648438 C 107.601562 239.777344 109.589844 234.988281 112.558594 230.8125 C 112.269531 230.527344 111.980469 230.238281 111.695312 229.949219 C 111.734375 229.496094 111.777344 229.042969 111.816406 228.589844 C 109.101562 229.152344 106.308594 229.109375 103.550781 228.972656 M 315.679688 235.875 C 315.671875 236.535156 315.675781 237.195312 315.675781 237.859375 C 315.34375 237.980469 315.015625 238.105469 314.6875 238.226562 C 314.480469 237.976562 314.273438 237.730469 314.070312 237.484375 C 310.175781 240.867188 312 238.851562 298.75 258.734375 C 298.949219 258.753906 316.988281 260.132812 318.769531 259.25 C 319.085938 251.460938 319.425781 243.671875 319.753906 235.882812 C 318.570312 235.945312 317.269531 235.890625 316.285156 235.152344 C 316.082031 235.390625 315.878906 235.632812 315.679688 235.875 M 323.710938 238.972656 C 323.535156 245.71875 323.382812 252.464844 323.207031 259.214844 C 323.207031 259.214844 325.121094 259.082031 330.007812 257.253906 C 326.546875 241.539062 327.355469 241.882812 323.710938 238.96875 M 330.46875 250.351562 C 330.949219 252.492188 331.488281 254.621094 331.933594 256.769531 C 332.097656 256.148438 332.394531 255.574219 332.722656 255.023438 C 331.863281 252.914062 330.996094 250.8125 330.15625 248.703125 C 330.164062 249.265625 330.355469 249.804688 330.46875 250.351562 M 329.019531 260.59375 C 329.058594 262.113281 329.097656 263.636719 329.144531 265.15625 C 330.148438 265.332031 331.183594 265.59375 331.988281 266.257812 C 331.476562 264.128906 331 261.984375 330.5 259.851562 C 330.003906 260.097656 329.511719 260.34375 329.019531 260.59375 M 302.707031 261.8125 C 301.152344 262.164062 299.542969 261.910156 298.011719 261.578125 C 297.964844 264.902344 297.925781 268.230469 297.886719 271.554688 C 298.472656 271.664062 298.785156 272.199219 299.015625 272.695312 C 301.171875 272.378906 309.292969 275.367188 311.597656 276.527344 C 311.96875 271.875 312.339844 267.222656 312.710938 262.570312 C 300.574219 261.078125 304.441406 261.492188 302.707031 261.8125 M 74.121094 266.746094 C 71.382812 268.089844 69.003906 270.066406 66.851562 272.203125 C 67.21875 272.695312 67.476562 273.285156 67.921875 273.710938 C 70.402344 274.761719 71.230469 276 71.953125 277.707031 C 73.457031 275.214844 74.976562 272.730469 76.480469 270.234375 C 76.179688 268.855469 76.589844 267.421875 77.347656 266.265625 C 77.308594 266.0625 77.265625 265.855469 77.226562 265.65625 C 76.175781 265.976562 75.101562 266.25 74.121094 266.746094 M 323.136719 266.085938 C 322.632812 266.355469 322.609375 267.007812 322.367188 267.464844 C 323.441406 268.097656 322.691406 269.917969 322.242188 271.199219 C 322.582031 271.746094 322.933594 272.234375 321.757812 273.796875 C 322.136719 274.257812 322.59375 274.597656 321.753906 276.636719 C 322.160156 277.214844 321.910156 277.9375 321.617188 278.507812 C 323.476562 278.527344 324.589844 278.210938 324.097656 280.359375 C 324.097656 280.359375 322.574219 280.886719 319.144531 280.984375 C 321.777344 282.628906 324.410156 284.273438 327.042969 285.921875 C 327.042969 279.949219 327.042969 273.976562 327.042969 268.003906 C 325.972656 267.222656 324.902344 266.4375 323.832031 265.660156 C 323.597656 265.800781 323.363281 265.9375 323.136719 266.085938 M 314.9375 266.398438 C 314.6875 269.734375 314.445312 273.070312 314.195312 276.410156 C 315.503906 276.320312 316.816406 276.246094 318.128906 276.160156 C 317.667969 275.066406 318.074219 273.851562 318.75 272.949219 C 318.078125 272.019531 318.394531 270.800781 318.871094 269.859375 C 318.664062 269.222656 318.707031 268.542969 318.875 267.90625 C 320.332031 267.832031 319.097656 266.453125 318.632812 266.050781 C 317.390625 265.710938 316.160156 266.234375 314.9375 266.398438 M 266.695312 267.210938 C 266.523438 267.488281 265.640625 269.027344 265.277344 269.484375 C 267.484375 271.441406 266.964844 270.386719 267.742188 278.125 C 274.59375 272.9375 275.636719 270.460938 275.636719 270.460938 C 271.753906 266.582031 267.230469 266.734375 266.695312 267.210938 M 86.285156 267.140625 C 85.960938 268.058594 86.09375 267.757812 84.894531 268.496094 C 85.105469 276.28125 85.304688 284.066406 85.515625 291.847656 C 86.832031 291.9375 88.148438 292.011719 89.46875 292.101562 C 90.363281 291.421875 91.117188 288.59375 91.082031 287.152344 C 91.242188 286.984375 91.402344 286.824219 91.5625 286.664062 C 92.238281 279.296875 93.339844 275.441406 95.027344 268.253906 C 91.3125 268.429688 92.167969 267.140625 86.285156 267.140625 M 255.378906 267.265625 C 254.992188 268.03125 254.953125 268.921875 255.140625 269.75 C 253.804688 272.054688 253.070312 268.488281 252.898438 267.933594 C 251.507812 267.867188 246.914062 270.804688 245.628906 271.589844 C 248.6875 272.894531 250.074219 273.042969 256.816406 277.863281 C 257.347656 277.566406 257.625 277.253906 259.832031 278.136719 C 259.917969 275.046875 260 271.953125 260.082031 268.863281 C 258.613281 268.894531 258.089844 269.945312 256.492188 267.140625 C 256.121094 267.183594 255.746094 267.222656 255.378906 267.265625 M 329.019531 268.371094 C 328.9375 274.546875 328.855469 280.730469 328.773438 286.910156 C 331.734375 288.679688 334.699219 290.449219 337.664062 292.21875 C 336.105469 284.847656 334.535156 277.476562 332.976562 270.109375 C 331.378906 268.816406 330.0625 268.003906 329.019531 268.371094 M 77.957031 271.210938 C 78.035156 273.054688 78.117188 272.160156 73.523438 280.238281 C 75.539062 283.652344 77.550781 287.070312 79.574219 290.484375 C 79.53125 283.355469 79.5 276.230469 79.445312 269.105469 C 78.664062 269.523438 77.9375 270.269531 77.957031 271.210938 M 96.132812 269.117188 C 91.003906 292.972656 93.953125 282.515625 93.292969 290.121094 C 97.328125 287.894531 101.363281 285.675781 105.398438 283.449219 C 105.773438 279.570312 105.875 284.566406 103.667969 272.824219 C 98.386719 269.855469 97.378906 269.21875 96.132812 269.117188 M 276.839844 273.179688 C 273.738281 277.171875 276.078125 274.425781 269.089844 280.757812 C 269.683594 280.472656 281.125 274.050781 281.320312 273.9375 C 280.335938 273.277344 279.347656 272.621094 278.359375 271.960938 C 277.84375 272.355469 277.226562 272.640625 276.839844 273.179688 M 237.09375 276.535156 C 237.210938 276.6875 237.332031 276.84375 237.453125 277.003906 C 238.539062 276.84375 245.183594 285.628906 237.347656 281.722656 C 237.566406 283.761719 237.574219 285.035156 236.984375 285.828125 C 237.339844 287.675781 237.71875 289.515625 238.082031 291.359375 C 237.878906 291.644531 237.671875 291.929688 237.46875 292.21875 C 237.667969 294.15625 237.878906 296.09375 238.085938 298.03125 C 238.921875 297.746094 239.800781 297.578125 240.609375 297.226562 C 244.289062 294.152344 244.417969 294.28125 261.558594 284.6875 C 261.554688 284.355469 261.554688 284.027344 261.558594 283.699219 C 261.554688 283.699219 255.660156 281.792969 255.660156 281.792969 C 255.292969 281.417969 255.375 280.839844 255.371094 280.359375 C 250.894531 277.074219 243.273438 272.957031 243.273438 272.957031 C 241.207031 274.136719 239.152344 275.339844 237.09375 276.535156 M 300.980469 276.933594 C 300.277344 277.007812 299.570312 277.078125 298.867188 277.152344 C 298.828125 277.519531 298.78125 277.886719 298.746094 278.261719 C 300.578125 278.535156 303.960938 278.90625 305.710938 278.277344 C 305.238281 278.09375 301.488281 276.867188 300.980469 276.933594 M 271.648438 283.300781 C 270.902344 283.777344 270.113281 284.203125 269.445312 284.796875 C 270.621094 285.582031 273.59375 287.425781 274.65625 288.496094 C 275.0625 288.050781 275.476562 287.425781 276.15625 287.472656 C 278.425781 282.171875 281.207031 278.015625 281.207031 278.015625 C 277.996094 279.730469 274.78125 281.449219 271.648438 283.300781 M 284.480469 279.800781 C 283.242188 281.265625 280.597656 286.882812 279.621094 288.957031 C 280.519531 289.558594 280.007812 292.28125 279.722656 293.832031 C 282.421875 296.628906 285.152344 299.402344 287.839844 302.214844 C 287.855469 301.4375 288.324219 300.78125 288.851562 300.25 C 289.140625 300.332031 289.433594 300.417969 289.726562 300.5 C 291.886719 289.921875 291.351562 294.386719 291.953125 279.992188 C 291.785156 279.910156 291.621094 279.824219 291.460938 279.746094 C 289.183594 281.914062 287.078125 281.019531 285.644531 278.269531 C 285.253906 278.777344 284.882812 279.300781 284.480469 279.800781 M 229.074219 281.710938 C 228.824219 283.128906 228.679688 284.59375 228.105469 285.925781 C 229.617188 285.660156 231.136719 285.433594 232.648438 285.179688 C 232.648438 284.53125 232.648438 283.882812 232.648438 283.234375 C 232.144531 283.214844 231.738281 282.898438 231.511719 282.464844 C 231.023438 282.503906 230.539062 282.542969 230.054688 282.589844 C 230.019531 281.738281 230.148438 280.875 229.9375 280.042969 C 229.3125 280.328125 229.148438 281.089844 229.074219 281.710938 M 306.957031 281.871094 C 308.371094 282.652344 309.800781 283.417969 311.222656 284.191406 C 311.304688 283.203125 311.386719 282.214844 311.46875 281.226562 C 309.964844 281.453125 308.449219 281.59375 306.957031 281.871094 M 297.632812 281.972656 C 297.628906 282.214844 297.628906 282.460938 297.632812 282.710938 C 301.957031 285.839844 306.28125 288.96875 310.601562 292.097656 C 310.8125 289.835938 311.015625 287.570312 311.222656 285.304688 C 309.367188 284.164062 307.535156 282.976562 305.660156 281.867188 C 302.988281 281.859375 300.308594 281.941406 297.632812 281.972656 M 313.695312 282.339844 C 313.609375 283.328125 313.527344 284.316406 313.445312 285.304688 C 315.996094 286.746094 318.550781 288.183594 321.101562 289.628906 C 321.804688 289.140625 322.503906 288.640625 323.203125 288.144531 C 320.035156 286.210938 316.863281 284.273438 313.695312 282.339844 M 68.574219 288.886719 C 68.652344 289.128906 68.734375 289.375 68.8125 289.625 C 71.816406 290.910156 74.828125 292.179688 77.835938 293.457031 C 77.667969 291.292969 79.132812 294.207031 72.277344 282.464844 C 71.042969 284.601562 69.808594 286.746094 68.574219 288.886719 M 297.496094 283.453125 C 297.28125 290.253906 297.09375 297.058594 296.867188 303.859375 C 300.152344 306.191406 302.703125 303.085938 312.070312 296.671875 C 308.824219 294.171875 307.871094 293.945312 309.710938 292.707031 C 305.640625 289.621094 301.566406 286.539062 297.496094 283.453125 M 313.433594 286.417969 C 313.265625 288.722656 313.101562 291.027344 312.9375 293.332031 C 314.171875 293.316406 315.410156 293.367188 316.640625 293.3125 C 320.382812 291.421875 319.679688 291.292969 320.472656 290.25 C 318.128906 288.96875 315.78125 287.691406 313.433594 286.417969 M 226.921875 288.734375 C 225.289062 292.390625 221.480469 298.386719 218.648438 303.023438 C 220.035156 301.632812 227.566406 290.414062 228.679688 288.761719 C 228.390625 288.515625 228.101562 288.269531 227.820312 288.023438 C 227.519531 288.257812 227.144531 288.417969 226.921875 288.734375 M 270.4375 289.121094 C 270.554688 289.570312 270.675781 290.019531 270.804688 290.46875 C 272.152344 290.707031 272.390625 291.707031 272.285156 293.078125 C 271.585938 293.773438 271.824219 293.738281 272.242188 293.976562 C 271.726562 294.652344 272.039062 294.484375 272.265625 294.722656 C 272.875 294.136719 274.214844 293.222656 273.664062 292.640625 C 273.675781 292.265625 273.804688 291.878906 273.722656 291.515625 C 273.054688 290.28125 271.816406 289.375 270.4375 289.121094 M 323.320312 291.730469 C 322.996094 292.101562 322.628906 292.441406 322.351562 292.851562 C 322.210938 293.328125 322.171875 293.832031 322.078125 294.324219 C 323.5625 294.113281 325.046875 293.914062 326.527344 293.703125 C 326.609375 293.539062 326.691406 293.371094 326.773438 293.210938 C 325.625 292.714844 324.46875 292.226562 323.320312 291.730469 Z M 323.320312 291.730469 " fill-opacity="1" fill-rule="nonzero"/></svg>