<svg xmlns="http://www.w3.org/2000/svg" xmlns:xlink="http://www.w3.org/1999/xlink" width="500" zoomAndPan="magnify" viewBox="0 0 375 374.999991" height="500" preserveAspectRatio="xMidYMid meet" version="1.0"><defs><clipPath id="id1"><path d="M 3 0 L 372 0 L 372 363.75 L 3 363.75 Z M 3 0 " clip-rule="nonzero"/></clipPath></defs><g clip-path="url(#id1)"><path fill="#ffffff" d="M 363.003906 144.929688 C 362.988281 144.878906 363 144.828125 362.980469 144.78125 C 362.976562 144.765625 362.957031 144.753906 362.953125 144.734375 C 360.757812 136.589844 358.171875 128.609375 355.175781 120.855469 C 355.171875 120.84375 355.171875 120.832031 355.167969 120.824219 C 355.167969 120.816406 355.160156 120.8125 355.15625 120.804688 C 347.816406 101.824219 338.113281 84.148438 326.148438 68.484375 C 292.421875 24.320312 243.222656 0 187.617188 0 C 132.011719 0 82.808594 24.320312 49.085938 68.484375 C 37.121094 84.152344 27.417969 101.824219 20.078125 120.804688 C 20.078125 120.8125 20.070312 120.816406 20.066406 120.824219 C 20.0625 120.832031 20.0625 120.84375 20.058594 120.855469 C 17.0625 128.609375 14.476562 136.585938 12.28125 144.734375 C 12.277344 144.75 12.257812 144.761719 12.253906 144.78125 C 12.234375 144.828125 12.242188 144.878906 12.226562 144.929688 C 0.625 188.085938 0.339844 236.035156 12.574219 281.804688 C 10.84375 285.753906 9.886719 290.082031 9.886719 294.585938 C 9.886719 312.085938 24.109375 326.324219 41.597656 326.324219 C 44.824219 326.324219 47.976562 325.839844 51.007812 324.894531 L 55.746094 336.316406 C 58.894531 343.90625 64.621094 349.894531 71.875 353.171875 C 84.296875 358.789062 98.390625 362.15625 113.84375 363.304688 C 114.011719 363.335938 114.183594 363.382812 114.359375 363.382812 C 114.40625 363.382812 114.449219 363.355469 114.496094 363.351562 C 118.011719 363.597656 121.566406 363.765625 125.21875 363.777344 C 125.253906 363.777344 125.289062 363.777344 125.328125 363.777344 C 136.160156 363.777344 146.148438 358.332031 152.070312 349.183594 C 158.0625 339.925781 158.9375 328.40625 154.40625 318.375 L 101.972656 202.222656 C 97.765625 192.894531 89.210938 186.316406 79.105469 184.644531 C 69.039062 182.972656 58.898438 186.417969 51.953125 193.84375 C 49.503906 196.464844 47.234375 199.113281 45.058594 201.78125 C 44.980469 201.859375 44.921875 201.945312 44.851562 202.03125 C 38.902344 209.355469 33.984375 216.867188 30.035156 224.679688 C 32.304688 166.421875 52.417969 114.238281 86.324219 79.863281 C 114.042969 51.761719 149.070312 36.90625 187.617188 36.90625 C 226.164062 36.90625 261.191406 51.761719 288.910156 79.863281 C 322.8125 114.238281 342.929688 166.421875 345.199219 224.679688 C 341.25 216.867188 336.328125 209.355469 330.382812 202.03125 C 330.3125 201.945312 330.257812 201.855469 330.175781 201.78125 C 328 199.113281 325.734375 196.464844 323.277344 193.84375 C 316.335938 186.417969 306.179688 182.980469 296.128906 184.644531 C 286.019531 186.320312 277.46875 192.894531 273.257812 202.222656 L 220.828125 318.367188 C 216.296875 328.402344 217.171875 339.921875 223.164062 349.179688 C 229.085938 358.324219 239.074219 363.773438 249.90625 363.773438 C 249.945312 363.773438 249.980469 363.773438 250.015625 363.773438 C 253.667969 363.761719 257.226562 363.59375 260.738281 363.347656 C 260.785156 363.347656 260.828125 363.375 260.875 363.375 C 261.050781 363.375 261.21875 363.332031 261.386719 363.300781 C 276.839844 362.152344 290.933594 358.785156 303.363281 353.164062 C 310.609375 349.886719 316.339844 343.898438 319.488281 336.3125 L 324.226562 324.886719 C 327.257812 325.832031 330.410156 326.320312 333.636719 326.320312 C 351.121094 326.320312 365.347656 312.082031 365.347656 294.578125 C 365.347656 290.074219 364.386719 285.746094 362.660156 281.800781 C 374.890625 236.035156 374.609375 188.085938 363.003906 144.929688 Z M 358.425781 274.777344 C 355.746094 271.417969 352.367188 268.59375 348.445312 266.519531 L 350.484375 261.605469 C 353.460938 254.421875 353.726562 246.421875 351.273438 239.011719 C 351.597656 209.867188 347.566406 181.9375 339.6875 156.519531 L 358.230469 149.660156 C 368.292969 189.246094 368.671875 232.816406 358.425781 274.777344 Z M 344.246094 294.582031 C 344.246094 300.433594 339.488281 305.199219 333.636719 305.199219 C 333.234375 305.199219 332.84375 305.128906 332.445312 305.082031 L 340.246094 286.28125 C 342.734375 288.265625 344.246094 291.285156 344.246094 294.582031 Z M 331.511719 134.292969 L 350.828125 125.902344 C 353.019531 131.8125 354.984375 137.84375 356.707031 143.984375 L 337.863281 150.957031 C 335.9375 145.261719 333.824219 139.703125 331.511719 134.292969 Z M 37.371094 150.960938 L 18.527344 143.988281 C 20.25 137.847656 22.214844 131.816406 24.40625 125.90625 L 43.722656 134.296875 C 41.40625 139.703125 39.292969 145.261719 37.371094 150.960938 Z M 16.996094 149.660156 L 35.542969 156.519531 C 27.664062 181.9375 23.628906 209.867188 23.953125 239.007812 C 21.503906 246.421875 21.765625 254.421875 24.746094 261.605469 L 26.78125 266.519531 C 22.859375 268.59375 19.484375 271.417969 16.800781 274.777344 C 6.5625 232.816406 6.9375 189.246094 16.996094 149.660156 Z M 34.988281 286.28125 L 42.785156 305.082031 C 42.390625 305.125 42 305.199219 41.597656 305.199219 C 35.746094 305.199219 30.988281 300.433594 30.988281 294.582031 C 30.984375 291.285156 32.5 288.265625 34.988281 286.28125 Z M 41.59375 320.46875 C 27.332031 320.46875 15.730469 308.855469 15.730469 294.582031 C 15.730469 285.074219 20.890625 276.523438 29.054688 271.992188 L 32.691406 280.753906 C 28.039062 283.75 25.140625 288.902344 25.140625 294.582031 C 25.140625 303.664062 32.523438 311.050781 41.597656 311.050781 C 42.789062 311.050781 43.957031 310.902344 45.097656 310.652344 L 48.75 319.449219 C 46.4375 320.117188 44.046875 320.46875 41.59375 320.46875 Z M 61.148438 334.066406 L 39.105469 280.949219 C 39.105469 280.949219 39.105469 280.949219 39.105469 280.945312 C 39.105469 280.941406 39.101562 280.941406 39.101562 280.9375 L 33.253906 266.84375 L 30.152344 259.367188 C 27.65625 253.34375 27.46875 246.617188 29.636719 240.414062 C 33.417969 229.582031 38.960938 219.402344 46.363281 209.582031 L 109.730469 357.09375 C 96.738281 355.742188 85.027344 352.695312 74.277344 347.835938 C 68.382812 345.167969 63.722656 340.28125 61.148438 334.066406 Z M 56.21875 197.839844 C 61.910156 191.753906 69.910156 189.039062 78.148438 190.417969 C 86.324219 191.773438 93.238281 197.082031 96.644531 204.628906 L 149.074219 320.777344 C 152.78125 328.988281 152.0625 338.414062 147.160156 345.992188 C 142.324219 353.464844 134.167969 357.917969 125.324219 357.917969 C 125.292969 357.917969 125.261719 357.917969 125.238281 357.917969 C 122.195312 357.90625 119.238281 357.789062 116.324219 357.617188 L 50.492188 204.371094 C 52.3125 202.179688 54.199219 200.003906 56.21875 197.839844 Z M 187.617188 31.054688 C 147.46875 31.054688 111.003906 46.511719 82.164062 75.753906 C 67.539062 90.582031 55.429688 108.621094 46.082031 128.941406 L 26.515625 120.433594 C 33.535156 102.914062 42.621094 86.582031 53.730469 72.039062 C 86.796875 28.738281 133.09375 5.851562 187.617188 5.851562 C 242.140625 5.851562 288.4375 28.738281 321.503906 72.039062 C 332.609375 86.582031 341.699219 102.917969 348.71875 120.433594 L 329.152344 128.941406 C 319.804688 108.621094 307.695312 90.582031 293.070312 75.753906 C 264.230469 46.511719 227.761719 31.054688 187.617188 31.054688 Z M 249.996094 357.921875 C 249.964844 357.921875 249.933594 357.921875 249.90625 357.921875 C 241.070312 357.921875 232.910156 353.472656 228.070312 346 C 223.164062 338.417969 222.449219 328.992188 226.15625 320.78125 L 278.585938 204.636719 C 281.992188 197.089844 288.90625 191.773438 297.082031 190.421875 C 298.484375 190.1875 299.882812 190.074219 301.261719 190.074219 C 307.984375 190.074219 314.289062 192.800781 319.011719 197.847656 C 321.035156 200.007812 322.917969 202.1875 324.742188 204.375 L 258.90625 357.625 C 255.992188 357.792969 253.039062 357.910156 249.996094 357.921875 Z M 314.085938 334.066406 C 311.507812 340.28125 306.84375 345.167969 300.957031 347.832031 C 290.207031 352.695312 278.492188 355.738281 265.5 357.09375 L 328.867188 209.578125 C 336.269531 219.402344 341.8125 229.578125 345.59375 240.410156 C 347.761719 246.609375 347.578125 253.339844 345.078125 259.363281 L 341.976562 266.839844 L 336.128906 280.9375 C 336.128906 280.9375 336.125 280.9375 336.125 280.941406 C 336.125 280.945312 336.125 280.945312 336.125 280.949219 Z M 333.636719 320.46875 C 331.1875 320.46875 328.796875 320.117188 326.484375 319.449219 L 330.132812 310.652344 C 331.277344 310.902344 332.445312 311.050781 333.636719 311.050781 C 342.710938 311.050781 350.09375 303.664062 350.09375 294.582031 C 350.09375 288.902344 347.195312 283.75 342.542969 280.753906 L 346.179688 271.992188 C 354.339844 276.523438 359.5 285.074219 359.5 294.582031 C 359.5 308.855469 347.898438 320.46875 333.636719 320.46875 Z M 333.636719 320.46875 " fill-opacity="1" fill-rule="nonzero"/></g></svg>