<svg xmlns="http://www.w3.org/2000/svg" xmlns:xlink="http://www.w3.org/1999/xlink" width="500" zoomAndPan="magnify" viewBox="0 0 375 374.999991" height="500" preserveAspectRatio="xMidYMid meet" version="1.0"><defs><clipPath id="id1"><path d="M 69.609375 121 L 229 121 L 229 280 L 69.609375 280 Z M 69.609375 121 " clip-rule="nonzero"/></clipPath><clipPath id="id2"><path d="M 257 121 L 305.109375 121 L 305.109375 157 L 257 157 Z M 257 121 " clip-rule="nonzero"/></clipPath></defs><path fill="#ffffff" d="M 187.359375 242.460938 C 186.046875 242.460938 184.734375 242.425781 183.421875 242.363281 C 182.113281 242.296875 180.804688 242.199219 179.496094 242.066406 C 178.191406 241.9375 176.886719 241.773438 175.589844 241.582031 C 174.289062 241.386719 172.996094 241.160156 171.710938 240.902344 C 170.421875 240.644531 169.140625 240.359375 167.867188 240.039062 C 166.59375 239.714844 165.332031 239.367188 164.074219 238.984375 C 162.816406 238.601562 161.570312 238.1875 160.335938 237.742188 C 159.101562 237.300781 157.875 236.828125 156.664062 236.324219 C 155.449219 235.820312 154.25 235.285156 153.0625 234.722656 C 151.878906 234.160156 150.707031 233.570312 149.546875 232.949219 C 148.390625 232.328125 147.25 231.679688 146.121094 231.003906 C 144.996094 230.328125 143.886719 229.625 142.796875 228.894531 C 141.703125 228.164062 140.632812 227.40625 139.578125 226.625 C 138.523438 225.839844 137.488281 225.03125 136.472656 224.199219 C 135.457031 223.363281 134.464844 222.507812 133.492188 221.625 C 132.519531 220.742188 131.570312 219.835938 130.640625 218.90625 C 129.710938 217.976562 128.804688 217.023438 127.925781 216.050781 C 127.042969 215.078125 126.183594 214.082031 125.351562 213.066406 C 124.519531 212.050781 123.710938 211.015625 122.929688 209.957031 C 122.148438 208.902344 121.390625 207.828125 120.660156 206.734375 C 119.929688 205.644531 119.226562 204.535156 118.550781 203.40625 C 117.878906 202.277344 117.230469 201.136719 116.609375 199.976562 C 115.992188 198.816406 115.398438 197.644531 114.835938 196.457031 C 114.277344 195.269531 113.742188 194.066406 113.238281 192.855469 C 112.738281 191.640625 112.261719 190.414062 111.820312 189.175781 C 111.378906 187.9375 110.964844 186.691406 110.582031 185.433594 C 110.199219 184.175781 109.847656 182.910156 109.527344 181.636719 C 109.207031 180.359375 108.917969 179.078125 108.664062 177.789062 C 108.40625 176.5 108.179688 175.207031 107.984375 173.90625 C 107.792969 172.605469 107.628906 171.300781 107.5 169.992188 C 107.371094 168.6875 107.269531 167.375 107.207031 166.0625 C 107.140625 164.75 107.105469 163.4375 107.105469 162.121094 L 107.105469 81.722656 C 107.105469 80.40625 107.136719 79.09375 107.203125 77.78125 C 107.265625 76.46875 107.363281 75.15625 107.492188 73.847656 C 107.621094 72.539062 107.78125 71.234375 107.976562 69.933594 C 108.167969 68.636719 108.394531 67.339844 108.652344 66.050781 C 108.90625 64.761719 109.195312 63.480469 109.515625 62.203125 C 109.835938 60.929688 110.183594 59.660156 110.566406 58.402344 C 110.949219 57.144531 111.359375 55.898438 111.800781 54.660156 C 112.246094 53.421875 112.71875 52.195312 113.222656 50.980469 C 113.722656 49.765625 114.257812 48.566406 114.816406 47.378906 C 115.378906 46.1875 115.96875 45.015625 116.589844 43.855469 C 117.207031 42.695312 117.855469 41.554688 118.53125 40.425781 C 119.207031 39.296875 119.910156 38.1875 120.640625 37.09375 C 121.367188 36 122.125 34.925781 122.90625 33.871094 C 123.691406 32.816406 124.496094 31.78125 125.332031 30.761719 C 126.164062 29.746094 127.023438 28.753906 127.902344 27.777344 C 128.785156 26.804688 129.691406 25.851562 130.621094 24.921875 C 131.546875 23.992188 132.5 23.085938 133.472656 22.203125 C 134.445312 21.320312 135.441406 20.464844 136.457031 19.628906 C 137.46875 18.796875 138.503906 17.988281 139.558594 17.203125 C 140.613281 16.421875 141.6875 15.664062 142.78125 14.933594 C 143.871094 14.203125 144.980469 13.5 146.109375 12.824219 C 147.234375 12.148438 148.375 11.503906 149.535156 10.882812 C 150.691406 10.261719 151.867188 9.671875 153.050781 9.109375 C 154.238281 8.546875 155.441406 8.015625 156.652344 7.511719 C 157.867188 7.007812 159.089844 6.535156 160.328125 6.09375 C 161.5625 5.652344 162.8125 5.238281 164.066406 4.855469 C 165.324219 4.476562 166.589844 4.125 167.863281 3.804688 C 169.136719 3.484375 170.417969 3.199219 171.707031 2.941406 C 172.992188 2.683594 174.285156 2.460938 175.585938 2.269531 C 176.886719 2.074219 178.1875 1.914062 179.496094 1.785156 C 180.800781 1.65625 182.109375 1.558594 183.421875 1.496094 C 184.734375 1.429688 186.046875 1.398438 187.359375 1.398438 C 188.671875 1.398438 189.984375 1.429688 191.296875 1.496094 C 192.609375 1.558594 193.917969 1.65625 195.222656 1.785156 C 196.53125 1.914062 197.832031 2.074219 199.132812 2.269531 C 200.433594 2.460938 201.726562 2.683594 203.011719 2.941406 C 204.300781 3.199219 205.582031 3.484375 206.855469 3.804688 C 208.128906 4.125 209.394531 4.476562 210.652344 4.855469 C 211.90625 5.238281 213.15625 5.652344 214.390625 6.09375 C 215.628906 6.535156 216.851562 7.007812 218.066406 7.511719 C 219.277344 8.015625 220.480469 8.546875 221.667969 9.109375 C 222.851562 9.671875 224.027344 10.261719 225.183594 10.882812 C 226.34375 11.503906 227.484375 12.148438 228.609375 12.824219 C 229.738281 13.5 230.847656 14.203125 231.9375 14.933594 C 233.03125 15.664062 234.105469 16.421875 235.160156 17.203125 C 236.214844 17.988281 237.25 18.796875 238.261719 19.628906 C 239.277344 20.464844 240.273438 21.320312 241.246094 22.203125 C 242.21875 23.085938 243.171875 23.992188 244.097656 24.921875 C 245.027344 25.851562 245.933594 26.804688 246.816406 27.777344 C 247.695312 28.753906 248.554688 29.746094 249.386719 30.761719 C 250.222656 31.78125 251.027344 32.816406 251.8125 33.871094 C 252.59375 34.925781 253.351562 36 254.078125 37.09375 C 254.808594 38.1875 255.511719 39.296875 256.1875 40.425781 C 256.863281 41.554688 257.511719 42.695312 258.128906 43.855469 C 258.75 45.015625 259.339844 46.1875 259.902344 47.378906 C 260.460938 48.566406 260.996094 49.765625 261.496094 50.980469 C 262 52.195312 262.472656 53.421875 262.917969 54.660156 C 263.359375 55.898438 263.769531 57.144531 264.152344 58.402344 C 264.535156 59.660156 264.882812 60.929688 265.203125 62.203125 C 265.523438 63.480469 265.8125 64.761719 266.066406 66.050781 C 266.324219 67.339844 266.550781 68.636719 266.742188 69.933594 C 266.9375 71.234375 267.097656 72.539062 267.226562 73.847656 C 267.355469 75.15625 267.453125 76.46875 267.515625 77.78125 C 267.582031 79.09375 267.613281 80.40625 267.613281 81.722656 L 267.613281 162.121094 C 267.613281 163.4375 267.578125 164.75 267.511719 166.0625 C 267.449219 167.375 267.347656 168.6875 267.21875 169.992188 C 267.089844 171.300781 266.925781 172.605469 266.734375 173.90625 C 266.539062 175.207031 266.3125 176.5 266.054688 177.789062 C 265.796875 179.078125 265.511719 180.359375 265.191406 181.636719 C 264.871094 182.910156 264.519531 184.175781 264.136719 185.433594 C 263.753906 186.691406 263.339844 187.9375 262.898438 189.175781 C 262.457031 190.414062 261.980469 191.640625 261.480469 192.855469 C 260.976562 194.066406 260.441406 195.269531 259.878906 196.457031 C 259.320312 197.644531 258.726562 198.816406 258.109375 199.976562 C 257.488281 201.136719 256.839844 202.277344 256.167969 203.40625 C 255.492188 204.535156 254.789062 205.644531 254.058594 206.734375 C 253.328125 207.828125 252.570312 208.902344 251.789062 209.957031 C 251.007812 211.015625 250.199219 212.050781 249.367188 213.066406 C 248.535156 214.082031 247.675781 215.078125 246.792969 216.050781 C 245.914062 217.023438 245.007812 217.976562 244.078125 218.90625 C 243.148438 219.835938 242.199219 220.742188 241.226562 221.625 C 240.253906 222.507812 239.261719 223.363281 238.246094 224.199219 C 237.230469 225.03125 236.195312 225.839844 235.140625 226.625 C 234.085938 227.40625 233.015625 228.164062 231.921875 228.894531 C 230.832031 229.625 229.722656 230.328125 228.597656 231.003906 C 227.46875 231.679688 226.328125 232.328125 225.171875 232.949219 C 224.011719 233.570312 222.839844 234.160156 221.65625 234.722656 C 220.46875 235.285156 219.269531 235.820312 218.054688 236.324219 C 216.84375 236.828125 215.617188 237.300781 214.382812 237.742188 C 213.148438 238.1875 211.902344 238.601562 210.644531 238.984375 C 209.386719 239.367188 208.125 239.714844 206.851562 240.039062 C 205.578125 240.359375 204.296875 240.644531 203.007812 240.902344 C 201.722656 241.160156 200.429688 241.386719 199.128906 241.582031 C 197.832031 241.773438 196.527344 241.9375 195.222656 242.066406 C 193.914062 242.199219 192.605469 242.296875 191.296875 242.363281 C 189.984375 242.425781 188.671875 242.460938 187.359375 242.460938 Z M 187.359375 11.992188 C 186.21875 11.992188 185.082031 12.023438 183.941406 12.078125 C 182.804688 12.136719 181.667969 12.222656 180.535156 12.335938 C 179.402344 12.449219 178.269531 12.589844 177.144531 12.757812 C 176.015625 12.925781 174.894531 13.121094 173.777344 13.34375 C 172.660156 13.566406 171.546875 13.820312 170.445312 14.097656 C 169.339844 14.375 168.242188 14.679688 167.152344 15.011719 C 166.058594 15.34375 164.980469 15.703125 163.90625 16.085938 C 162.832031 16.472656 161.769531 16.882812 160.71875 17.320312 C 159.667969 17.757812 158.625 18.222656 157.59375 18.710938 C 156.566406 19.199219 155.546875 19.710938 154.542969 20.25 C 153.539062 20.785156 152.546875 21.347656 151.570312 21.9375 C 150.59375 22.523438 149.632812 23.132812 148.683594 23.769531 C 147.738281 24.402344 146.804688 25.058594 145.890625 25.738281 C 144.976562 26.417969 144.078125 27.121094 143.195312 27.84375 C 142.316406 28.566406 141.453125 29.3125 140.609375 30.078125 C 139.765625 30.84375 138.941406 31.632812 138.132812 32.4375 C 137.328125 33.246094 136.542969 34.070312 135.777344 34.917969 C 135.011719 35.761719 134.269531 36.625 133.546875 37.507812 C 132.824219 38.390625 132.121094 39.289062 131.441406 40.203125 C 130.761719 41.121094 130.105469 42.050781 129.472656 43 C 128.839844 43.949219 128.230469 44.914062 127.644531 45.890625 C 127.058594 46.871094 126.496094 47.863281 125.960938 48.867188 C 125.421875 49.875 124.910156 50.890625 124.421875 51.921875 C 123.933594 52.953125 123.472656 53.996094 123.035156 55.050781 C 122.597656 56.105469 122.1875 57.167969 121.804688 58.242188 C 121.417969 59.316406 121.058594 60.398438 120.730469 61.488281 C 120.398438 62.582031 120.09375 63.679688 119.816406 64.785156 C 119.535156 65.894531 119.285156 67.003906 119.0625 68.125 C 118.839844 69.242188 118.644531 70.367188 118.476562 71.496094 C 118.308594 72.621094 118.167969 73.753906 118.054688 74.890625 C 117.941406 76.023438 117.855469 77.164062 117.800781 78.300781 C 117.742188 79.441406 117.714844 80.582031 117.710938 81.722656 L 117.710938 162.121094 C 117.710938 163.261719 117.742188 164.402344 117.796875 165.542969 C 117.855469 166.679688 117.9375 167.820312 118.050781 168.953125 C 118.164062 170.089844 118.300781 171.222656 118.46875 172.351562 C 118.636719 173.476562 118.832031 174.601562 119.054688 175.71875 C 119.277344 176.839844 119.527344 177.953125 119.804688 179.058594 C 120.082031 180.164062 120.386719 181.265625 120.71875 182.355469 C 121.050781 183.449219 121.40625 184.53125 121.792969 185.605469 C 122.175781 186.679688 122.585938 187.742188 123.023438 188.796875 C 123.460938 189.851562 123.921875 190.890625 124.410156 191.921875 C 124.898438 192.953125 125.410156 193.972656 125.945312 194.980469 C 126.484375 195.984375 127.046875 196.976562 127.632812 197.957031 C 128.21875 198.933594 128.828125 199.898438 129.460938 200.84375 C 130.09375 201.792969 130.75 202.726562 131.429688 203.640625 C 132.109375 204.558594 132.808594 205.457031 133.535156 206.339844 C 134.257812 207.222656 135 208.085938 135.765625 208.929688 C 136.53125 209.773438 137.316406 210.601562 138.125 211.40625 C 138.929688 212.214844 139.753906 213 140.597656 213.765625 C 141.441406 214.53125 142.304688 215.277344 143.1875 216 C 144.066406 216.722656 144.964844 217.425781 145.882812 218.105469 C 146.796875 218.785156 147.726562 219.441406 148.675781 220.074219 C 149.625 220.707031 150.585938 221.316406 151.5625 221.902344 C 152.539062 222.488281 153.53125 223.050781 154.539062 223.589844 C 155.542969 224.128906 156.558594 224.640625 157.589844 225.128906 C 158.621094 225.613281 159.660156 226.078125 160.714844 226.511719 C 161.765625 226.949219 162.828125 227.359375 163.902344 227.746094 C 164.976562 228.128906 166.058594 228.488281 167.148438 228.816406 C 168.238281 229.148438 169.335938 229.453125 170.441406 229.730469 C 171.546875 230.007812 172.660156 230.257812 173.777344 230.480469 C 174.894531 230.703125 176.015625 230.898438 177.144531 231.0625 C 178.269531 231.230469 179.402344 231.371094 180.535156 231.484375 C 181.667969 231.59375 182.804688 231.679688 183.941406 231.734375 C 185.082031 231.789062 186.21875 231.816406 187.359375 231.816406 C 188.5 231.816406 189.636719 231.789062 190.777344 231.734375 C 191.914062 231.679688 193.050781 231.59375 194.183594 231.484375 C 195.316406 231.371094 196.449219 231.230469 197.574219 231.0625 C 198.703125 230.898438 199.824219 230.703125 200.941406 230.480469 C 202.058594 230.257812 203.171875 230.007812 204.277344 229.730469 C 205.382812 229.453125 206.480469 229.148438 207.570312 228.816406 C 208.660156 228.488281 209.742188 228.128906 210.816406 227.746094 C 211.890625 227.359375 212.953125 226.949219 214.003906 226.511719 C 215.058594 226.078125 216.097656 225.613281 217.128906 225.128906 C 218.160156 224.640625 219.175781 224.128906 220.179688 223.589844 C 221.1875 223.050781 222.179688 222.488281 223.15625 221.902344 C 224.132812 221.316406 225.09375 220.707031 226.042969 220.074219 C 226.992188 219.441406 227.921875 218.785156 228.835938 218.105469 C 229.753906 217.425781 230.652344 216.722656 231.53125 216 C 232.414062 215.277344 233.277344 214.53125 234.121094 213.765625 C 234.964844 213 235.789062 212.214844 236.59375 211.40625 C 237.402344 210.601562 238.1875 209.773438 238.953125 208.929688 C 239.71875 208.085938 240.460938 207.222656 241.183594 206.339844 C 241.910156 205.457031 242.609375 204.558594 243.289062 203.640625 C 243.96875 202.726562 244.625 201.792969 245.257812 200.84375 C 245.890625 199.898438 246.5 198.933594 247.085938 197.957031 C 247.671875 196.976562 248.234375 195.984375 248.773438 194.980469 C 249.308594 193.972656 249.820312 192.953125 250.308594 191.921875 C 250.796875 190.890625 251.257812 189.851562 251.695312 188.796875 C 252.132812 187.742188 252.542969 186.679688 252.925781 185.605469 C 253.3125 184.53125 253.667969 183.449219 254 182.355469 C 254.332031 181.265625 254.636719 180.164062 254.914062 179.058594 C 255.191406 177.953125 255.441406 176.839844 255.664062 175.71875 C 255.886719 174.601562 256.082031 173.476562 256.25 172.351562 C 256.417969 171.222656 256.554688 170.089844 256.667969 168.953125 C 256.78125 167.820312 256.863281 166.679688 256.921875 165.542969 C 256.976562 164.402344 257.007812 163.261719 257.007812 162.121094 L 257.007812 81.722656 C 257.003906 80.582031 256.976562 79.441406 256.917969 78.300781 C 256.863281 77.164062 256.777344 76.023438 256.664062 74.890625 C 256.550781 73.753906 256.410156 72.621094 256.242188 71.496094 C 256.074219 70.367188 255.878906 69.242188 255.65625 68.125 C 255.433594 67.003906 255.183594 65.894531 254.902344 64.785156 C 254.625 63.679688 254.320312 62.582031 253.988281 61.488281 C 253.660156 60.398438 253.300781 59.316406 252.914062 58.242188 C 252.53125 57.167969 252.121094 56.105469 251.683594 55.050781 C 251.246094 53.996094 250.785156 52.953125 250.296875 51.921875 C 249.808594 50.890625 249.296875 49.875 248.757812 48.867188 C 248.222656 47.863281 247.660156 46.871094 247.074219 45.890625 C 246.488281 44.914062 245.878906 43.949219 245.246094 43 C 244.613281 42.050781 243.957031 41.121094 243.277344 40.203125 C 242.597656 39.289062 241.894531 38.390625 241.171875 37.507812 C 240.449219 36.625 239.707031 35.761719 238.941406 34.917969 C 238.175781 34.070312 237.390625 33.246094 236.585938 32.4375 C 235.777344 31.632812 234.953125 30.84375 234.109375 30.078125 C 233.265625 29.3125 232.402344 28.566406 231.523438 27.84375 C 230.640625 27.121094 229.742188 26.417969 228.828125 25.738281 C 227.914062 25.058594 226.980469 24.402344 226.035156 23.769531 C 225.085938 23.132812 224.125 22.523438 223.148438 21.9375 C 222.171875 21.347656 221.179688 20.785156 220.175781 20.25 C 219.171875 19.710938 218.152344 19.199219 217.125 18.710938 C 216.09375 18.222656 215.050781 17.757812 214 17.320312 C 212.949219 16.882812 211.886719 16.472656 210.8125 16.085938 C 209.738281 15.703125 208.660156 15.34375 207.566406 15.011719 C 206.476562 14.679688 205.378906 14.375 204.273438 14.097656 C 203.171875 13.820312 202.058594 13.566406 200.941406 13.34375 C 199.824219 13.121094 198.703125 12.925781 197.574219 12.757812 C 196.449219 12.589844 195.316406 12.449219 194.183594 12.335938 C 193.050781 12.222656 191.914062 12.136719 190.777344 12.078125 C 189.636719 12.023438 188.5 11.992188 187.359375 11.992188 Z M 187.359375 11.992188 " fill-opacity="1" fill-rule="nonzero"/><path fill="#ffffff" d="M 290.359375 212.570312 C 290.136719 212.570312 289.917969 212.554688 289.699219 212.527344 C 289.480469 212.5 289.261719 212.460938 289.050781 212.40625 C 288.835938 212.351562 288.625 212.285156 288.421875 212.203125 C 288.214844 212.121094 288.015625 212.027344 287.820312 211.921875 C 287.628906 211.816406 287.441406 211.699219 287.261719 211.570312 C 287.082031 211.441406 286.914062 211.300781 286.75 211.152344 C 286.589844 211 286.4375 210.839844 286.296875 210.671875 C 286.152344 210.503906 286.023438 210.324219 285.902344 210.140625 C 285.78125 209.953125 285.675781 209.761719 285.578125 209.5625 C 285.484375 209.363281 285.402344 209.15625 285.332031 208.949219 C 285.261719 208.738281 285.203125 208.527344 285.160156 208.308594 C 285.117188 208.09375 285.085938 207.875 285.070312 207.652344 C 285.054688 207.433594 285.050781 207.210938 285.0625 206.992188 C 285.074219 206.769531 285.097656 206.550781 285.136719 206.335938 C 285.175781 206.117188 285.226562 205.902344 285.292969 205.691406 C 285.359375 205.480469 285.4375 205.273438 285.527344 205.070312 C 287.582031 200.445312 289.277344 195.6875 290.613281 190.804688 C 290.707031 190.46875 290.832031 190.144531 290.988281 189.832031 C 291.144531 189.523438 291.332031 189.230469 291.546875 188.953125 C 291.761719 188.679688 292 188.429688 292.265625 188.203125 C 292.527344 187.976562 292.8125 187.777344 293.117188 187.605469 C 293.417969 187.433594 293.734375 187.292969 294.066406 187.183594 C 294.398438 187.074219 294.734375 187 295.082031 186.957031 C 295.425781 186.914062 295.773438 186.90625 296.121094 186.933594 C 296.46875 186.960938 296.808594 187.019531 297.144531 187.113281 C 297.480469 187.207031 297.804688 187.332031 298.113281 187.488281 C 298.425781 187.644531 298.71875 187.832031 298.992188 188.046875 C 299.265625 188.261719 299.515625 188.5 299.742188 188.765625 C 299.96875 189.027344 300.167969 189.3125 300.339844 189.617188 C 300.511719 189.917969 300.652344 190.238281 300.761719 190.566406 C 300.871094 190.898438 300.945312 191.238281 300.988281 191.582031 C 301.03125 191.929688 301.039062 192.277344 301.011719 192.625 C 300.988281 192.972656 300.925781 193.3125 300.835938 193.648438 C 299.351562 199.054688 297.476562 204.316406 295.203125 209.4375 C 294.992188 209.902344 294.71875 210.332031 294.386719 210.71875 C 294.054688 211.109375 293.671875 211.441406 293.242188 211.71875 C 292.8125 211.996094 292.351562 212.210938 291.863281 212.355469 C 291.371094 212.5 290.871094 212.570312 290.359375 212.570312 Z M 290.359375 212.570312 " fill-opacity="1" fill-rule="nonzero"/><g clip-path="url(#id1)"><path fill="#ffffff" d="M 187.359375 279.953125 C 180.683594 279.960938 174.050781 279.40625 167.46875 278.285156 C 165.777344 277.996094 164.089844 277.667969 162.410156 277.300781 C 160.730469 276.933594 159.0625 276.535156 157.398438 276.09375 C 155.738281 275.65625 154.085938 275.179688 152.445312 274.671875 C 150.804688 274.160156 149.175781 273.613281 147.558594 273.03125 C 145.941406 272.449219 144.339844 271.832031 142.75 271.179688 C 141.160156 270.527344 139.585938 269.839844 138.023438 269.117188 C 136.464844 268.398438 134.921875 267.640625 133.394531 266.851562 C 131.867188 266.0625 130.359375 265.242188 128.867188 264.386719 C 127.378906 263.53125 125.90625 262.644531 124.453125 261.722656 C 123 260.804688 121.570312 259.855469 120.160156 258.871094 C 118.75 257.890625 117.359375 256.875 115.996094 255.832031 C 114.628906 254.789062 113.285156 253.71875 111.964844 252.617188 C 110.644531 251.515625 109.351562 250.382812 108.082031 249.226562 C 106.8125 248.066406 105.566406 246.878906 104.347656 245.667969 C 103.128906 244.453125 101.9375 243.214844 100.773438 241.949219 C 99.609375 240.683594 98.472656 239.394531 97.367188 238.078125 C 96.257812 236.765625 95.179688 235.425781 94.132812 234.0625 C 93.082031 232.699219 92.0625 231.316406 91.074219 229.910156 C 90.085938 228.503906 89.128906 227.074219 88.203125 225.625 C 87.273438 224.175781 86.378906 222.707031 85.519531 221.21875 C 84.65625 219.734375 83.828125 218.226562 83.03125 216.703125 C 82.234375 215.175781 81.472656 213.636719 80.742188 212.078125 C 80.011719 210.519531 79.320312 208.949219 78.65625 207.359375 C 77.996094 205.773438 77.371094 204.167969 76.78125 202.554688 C 76.191406 200.9375 75.636719 199.3125 75.117188 197.671875 C 74.597656 196.03125 74.117188 194.378906 73.667969 192.71875 C 73.222656 191.058594 72.808594 189.386719 72.4375 187.710938 C 72.0625 186.03125 71.726562 184.34375 71.425781 182.648438 C 71.125 180.957031 70.859375 179.257812 70.632812 177.550781 C 70.410156 175.847656 70.21875 174.136719 70.066406 172.421875 C 69.917969 170.710938 69.800781 168.992188 69.726562 167.273438 C 69.648438 165.554688 69.609375 163.835938 69.609375 162.117188 L 69.609375 127.226562 C 69.609375 126.878906 69.644531 126.53125 69.710938 126.191406 C 69.777344 125.847656 69.878906 125.515625 70.011719 125.195312 C 70.144531 124.871094 70.308594 124.566406 70.503906 124.277344 C 70.695312 123.988281 70.917969 123.71875 71.164062 123.472656 C 71.410156 123.226562 71.675781 123.003906 71.964844 122.8125 C 72.257812 122.617188 72.5625 122.453125 72.882812 122.320312 C 73.207031 122.1875 73.535156 122.085938 73.878906 122.019531 C 74.21875 121.949219 74.566406 121.917969 74.914062 121.917969 L 112.414062 121.917969 C 112.761719 121.917969 113.105469 121.949219 113.449219 122.019531 C 113.789062 122.085938 114.121094 122.1875 114.441406 122.320312 C 114.765625 122.453125 115.070312 122.617188 115.359375 122.8125 C 115.648438 123.003906 115.917969 123.226562 116.164062 123.472656 C 116.410156 123.71875 116.628906 123.988281 116.824219 124.277344 C 117.015625 124.566406 117.179688 124.871094 117.3125 125.195312 C 117.445312 125.515625 117.546875 125.847656 117.613281 126.191406 C 117.683594 126.53125 117.71875 126.878906 117.71875 127.226562 C 117.71875 127.574219 117.683594 127.921875 117.613281 128.261719 C 117.546875 128.605469 117.445312 128.9375 117.3125 129.257812 C 117.179688 129.582031 117.015625 129.886719 116.824219 130.175781 C 116.628906 130.46875 116.410156 130.734375 116.164062 130.980469 C 115.917969 131.230469 115.648438 131.449219 115.359375 131.640625 C 115.070312 131.835938 114.765625 132 114.441406 132.132812 C 114.121094 132.265625 113.789062 132.367188 113.449219 132.433594 C 113.105469 132.503906 112.761719 132.539062 112.414062 132.539062 L 80.21875 132.539062 L 80.21875 162.117188 C 80.21875 163.679688 80.253906 165.246094 80.324219 166.808594 C 80.394531 168.371094 80.5 169.933594 80.636719 171.492188 C 80.773438 173.050781 80.945312 174.605469 81.152344 176.15625 C 81.359375 177.710938 81.597656 179.253906 81.871094 180.796875 C 82.144531 182.335938 82.453125 183.871094 82.792969 185.398438 C 83.132812 186.925781 83.507812 188.445312 83.914062 189.957031 C 84.324219 191.46875 84.761719 192.96875 85.234375 194.460938 C 85.707031 195.953125 86.210938 197.433594 86.75 198.902344 C 87.285156 200.371094 87.855469 201.828125 88.457031 203.273438 C 89.058594 204.71875 89.691406 206.148438 90.355469 207.566406 C 91.015625 208.984375 91.710938 210.386719 92.4375 211.773438 C 93.160156 213.160156 93.914062 214.527344 94.699219 215.882812 C 95.484375 217.234375 96.296875 218.570312 97.140625 219.890625 C 97.984375 221.207031 98.855469 222.507812 99.753906 223.785156 C 100.65625 225.066406 101.582031 226.324219 102.535156 227.566406 C 103.492188 228.804688 104.472656 230.023438 105.480469 231.21875 C 106.488281 232.414062 107.523438 233.589844 108.582031 234.738281 C 109.640625 235.890625 110.722656 237.015625 111.832031 238.121094 C 112.941406 239.222656 114.074219 240.304688 115.226562 241.355469 C 116.382812 242.410156 117.5625 243.4375 118.761719 244.441406 C 119.964844 245.445312 121.183594 246.417969 122.429688 247.367188 C 123.671875 248.316406 124.933594 249.238281 126.21875 250.132812 C 127.5 251.023438 128.804688 251.890625 130.125 252.726562 C 131.445312 253.5625 132.785156 254.371094 134.140625 255.148438 C 135.496094 255.925781 136.871094 256.675781 138.257812 257.390625 C 139.648438 258.109375 141.050781 258.796875 142.46875 259.453125 C 143.890625 260.109375 145.324219 260.734375 146.769531 261.328125 C 148.214844 261.921875 149.675781 262.484375 151.144531 263.011719 C 152.617188 263.542969 154.097656 264.039062 155.589844 264.503906 C 157.082031 264.96875 158.585938 265.402344 160.097656 265.800781 C 161.609375 266.199219 163.128906 266.5625 164.65625 266.898438 C 166.183594 267.230469 167.714844 267.527344 169.257812 267.792969 C 181.320312 269.816406 193.386719 269.816406 205.453125 267.792969 C 210.796875 266.902344 216.035156 265.574219 221.160156 263.808594 C 221.5625 263.683594 221.972656 263.601562 222.390625 263.570312 C 222.808594 263.539062 223.226562 263.554688 223.640625 263.621094 C 224.054688 263.6875 224.457031 263.796875 224.847656 263.957031 C 225.234375 264.113281 225.601562 264.3125 225.941406 264.558594 C 226.285156 264.800781 226.59375 265.078125 226.875 265.394531 C 227.152344 265.710938 227.390625 266.054688 227.585938 266.425781 C 227.785156 266.792969 227.9375 267.183594 228.046875 267.589844 C 228.15625 267.996094 228.214844 268.410156 228.226562 268.828125 C 228.226562 269.417969 228.132812 269.988281 227.945312 270.546875 C 227.753906 271.101562 227.480469 271.613281 227.121094 272.082031 C 226.761719 272.546875 226.339844 272.941406 225.847656 273.265625 C 225.359375 273.589844 224.828125 273.824219 224.257812 273.972656 C 218.699219 275.867188 213.023438 277.296875 207.226562 278.261719 C 200.652344 279.390625 194.03125 279.953125 187.359375 279.953125 Z M 187.359375 279.953125 " fill-opacity="1" fill-rule="nonzero"/></g><path fill="#ffffff" d="M 258.171875 254.835938 C 257.625 254.835938 257.089844 254.753906 256.566406 254.585938 C 256.042969 254.421875 255.558594 254.179688 255.113281 253.863281 C 254.664062 253.546875 254.273438 253.167969 253.945312 252.730469 C 253.613281 252.292969 253.355469 251.816406 253.171875 251.300781 C 252.988281 250.78125 252.886719 250.25 252.871094 249.699219 C 252.851562 249.152344 252.917969 248.613281 253.066406 248.085938 C 253.214844 247.558594 253.441406 247.0625 253.742188 246.605469 C 254.042969 246.148438 254.40625 245.746094 254.832031 245.398438 C 258.839844 242.132812 262.59375 238.589844 266.09375 234.777344 C 266.328125 234.523438 266.585938 234.289062 266.867188 234.085938 C 267.148438 233.878906 267.449219 233.703125 267.765625 233.554688 C 268.078125 233.410156 268.40625 233.296875 268.746094 233.210938 C 269.085938 233.128906 269.425781 233.082031 269.773438 233.066406 C 270.125 233.054688 270.46875 233.074219 270.8125 233.125 C 271.15625 233.179688 271.492188 233.265625 271.820312 233.386719 C 272.148438 233.507812 272.460938 233.65625 272.757812 233.839844 C 273.054688 234.019531 273.332031 234.230469 273.585938 234.464844 C 273.84375 234.699219 274.074219 234.960938 274.28125 235.242188 C 274.484375 235.523438 274.660156 235.820312 274.808594 236.136719 C 274.953125 236.453125 275.070312 236.78125 275.152344 237.121094 C 275.234375 237.460938 275.28125 237.804688 275.296875 238.152344 C 275.308594 238.5 275.289062 238.847656 275.238281 239.191406 C 275.183594 239.535156 275.097656 239.871094 274.976562 240.199219 C 274.859375 240.527344 274.707031 240.839844 274.527344 241.136719 C 274.34375 241.433594 274.136719 241.710938 273.898438 241.96875 C 270.050781 246.164062 265.921875 250.058594 261.503906 253.652344 C 260.535156 254.441406 259.425781 254.835938 258.171875 254.835938 Z M 258.171875 254.835938 " fill-opacity="1" fill-rule="nonzero"/><g clip-path="url(#id2)"><path fill="#ffffff" d="M 299.804688 156.648438 C 299.457031 156.648438 299.113281 156.613281 298.769531 156.542969 C 298.429688 156.476562 298.097656 156.375 297.777344 156.242188 C 297.453125 156.109375 297.148438 155.945312 296.859375 155.75 C 296.570312 155.558594 296.300781 155.335938 296.054688 155.089844 C 295.808594 154.84375 295.589844 154.578125 295.394531 154.285156 C 295.203125 153.996094 295.039062 153.691406 294.90625 153.367188 C 294.773438 153.046875 294.671875 152.714844 294.601562 152.371094 C 294.535156 152.03125 294.5 151.683594 294.5 151.335938 L 294.5 132.539062 L 262.304688 132.539062 C 261.957031 132.539062 261.613281 132.503906 261.269531 132.433594 C 260.929688 132.367188 260.597656 132.265625 260.277344 132.132812 C 259.953125 132 259.648438 131.835938 259.359375 131.640625 C 259.070312 131.449219 258.800781 131.230469 258.554688 130.980469 C 258.308594 130.734375 258.089844 130.46875 257.894531 130.175781 C 257.703125 129.886719 257.539062 129.582031 257.40625 129.257812 C 257.273438 128.9375 257.171875 128.605469 257.101562 128.261719 C 257.035156 127.921875 257 127.574219 257 127.226562 C 257 126.878906 257.035156 126.53125 257.101562 126.191406 C 257.171875 125.847656 257.273438 125.515625 257.40625 125.195312 C 257.539062 124.871094 257.703125 124.566406 257.894531 124.277344 C 258.089844 123.988281 258.308594 123.71875 258.554688 123.472656 C 258.800781 123.226562 259.070312 123.003906 259.359375 122.8125 C 259.648438 122.617188 259.953125 122.453125 260.277344 122.320312 C 260.597656 122.1875 260.929688 122.085938 261.269531 122.019531 C 261.613281 121.949219 261.957031 121.917969 262.304688 121.917969 L 299.804688 121.917969 C 300.152344 121.917969 300.5 121.949219 300.839844 122.019531 C 301.179688 122.085938 301.511719 122.1875 301.835938 122.320312 C 302.15625 122.453125 302.460938 122.617188 302.753906 122.8125 C 303.042969 123.003906 303.308594 123.226562 303.554688 123.472656 C 303.800781 123.71875 304.023438 123.988281 304.214844 124.277344 C 304.410156 124.566406 304.574219 124.871094 304.707031 125.195312 C 304.839844 125.515625 304.9375 125.847656 305.007812 126.191406 C 305.074219 126.53125 305.109375 126.878906 305.109375 127.226562 L 305.109375 151.335938 C 305.109375 151.683594 305.074219 152.03125 305.007812 152.371094 C 304.941406 152.714844 304.839844 153.046875 304.707031 153.367188 C 304.574219 153.691406 304.410156 153.996094 304.214844 154.285156 C 304.023438 154.578125 303.800781 154.84375 303.554688 155.089844 C 303.308594 155.335938 303.042969 155.558594 302.753906 155.75 C 302.460938 155.945312 302.15625 156.109375 301.835938 156.242188 C 301.511719 156.375 301.179688 156.476562 300.839844 156.542969 C 300.5 156.613281 300.152344 156.648438 299.804688 156.648438 Z M 299.804688 156.648438 " fill-opacity="1" fill-rule="nonzero"/></g><path fill="#ffffff" d="M 262.3125 87.085938 L 185.132812 87.085938 C 184.785156 87.085938 184.4375 87.050781 184.097656 86.984375 C 183.753906 86.914062 183.421875 86.816406 183.101562 86.679688 C 182.78125 86.546875 182.472656 86.382812 182.183594 86.191406 C 181.894531 85.996094 181.628906 85.777344 181.382812 85.53125 C 181.136719 85.285156 180.914062 85.015625 180.722656 84.726562 C 180.527344 84.4375 180.363281 84.128906 180.230469 83.808594 C 180.097656 83.484375 179.996094 83.152344 179.929688 82.8125 C 179.863281 82.46875 179.828125 82.125 179.828125 81.777344 C 179.828125 81.425781 179.863281 81.082031 179.929688 80.738281 C 179.996094 80.398438 180.097656 80.066406 180.230469 79.742188 C 180.363281 79.421875 180.527344 79.113281 180.722656 78.824219 C 180.914062 78.535156 181.136719 78.265625 181.382812 78.019531 C 181.628906 77.773438 181.894531 77.554688 182.183594 77.359375 C 182.472656 77.167969 182.78125 77.003906 183.101562 76.871094 C 183.421875 76.734375 183.753906 76.636719 184.097656 76.566406 C 184.4375 76.5 184.785156 76.464844 185.132812 76.464844 L 262.3125 76.464844 C 262.660156 76.464844 263.003906 76.5 263.34375 76.566406 C 263.6875 76.636719 264.019531 76.734375 264.339844 76.871094 C 264.664062 77.003906 264.96875 77.167969 265.257812 77.359375 C 265.546875 77.554688 265.816406 77.773438 266.0625 78.019531 C 266.308594 78.265625 266.527344 78.535156 266.722656 78.824219 C 266.914062 79.113281 267.078125 79.421875 267.210938 79.742188 C 267.34375 80.066406 267.445312 80.398438 267.511719 80.738281 C 267.582031 81.082031 267.613281 81.425781 267.613281 81.777344 C 267.613281 82.125 267.582031 82.46875 267.511719 82.8125 C 267.445312 83.152344 267.34375 83.484375 267.210938 83.808594 C 267.078125 84.128906 266.914062 84.4375 266.722656 84.726562 C 266.527344 85.015625 266.308594 85.285156 266.0625 85.53125 C 265.816406 85.777344 265.546875 85.996094 265.257812 86.191406 C 264.96875 86.382812 264.664062 86.546875 264.339844 86.679688 C 264.019531 86.816406 263.6875 86.914062 263.34375 86.984375 C 263.003906 87.050781 262.660156 87.085938 262.3125 87.085938 Z M 262.3125 87.085938 " fill-opacity="1" fill-rule="nonzero"/><path fill="#ffffff" d="M 262.3125 127.226562 L 185.132812 127.226562 C 184.785156 127.226562 184.4375 127.191406 184.097656 127.125 C 183.753906 127.058594 183.421875 126.957031 183.101562 126.824219 C 182.78125 126.6875 182.472656 126.527344 182.183594 126.332031 C 181.894531 126.136719 181.628906 125.917969 181.382812 125.671875 C 181.136719 125.425781 180.914062 125.15625 180.722656 124.867188 C 180.527344 124.578125 180.363281 124.269531 180.230469 123.949219 C 180.097656 123.625 179.996094 123.292969 179.929688 122.953125 C 179.863281 122.609375 179.828125 122.265625 179.828125 121.917969 C 179.828125 121.566406 179.863281 121.222656 179.929688 120.878906 C 179.996094 120.539062 180.097656 120.207031 180.230469 119.882812 C 180.363281 119.5625 180.527344 119.257812 180.722656 118.964844 C 180.914062 118.675781 181.136719 118.410156 181.382812 118.160156 C 181.628906 117.914062 181.894531 117.695312 182.183594 117.5 C 182.472656 117.308594 182.78125 117.144531 183.101562 117.011719 C 183.421875 116.878906 183.753906 116.777344 184.097656 116.707031 C 184.4375 116.640625 184.785156 116.605469 185.132812 116.605469 L 262.3125 116.605469 C 262.660156 116.605469 263.003906 116.640625 263.34375 116.707031 C 263.6875 116.777344 264.019531 116.878906 264.339844 117.011719 C 264.664062 117.144531 264.96875 117.308594 265.257812 117.5 C 265.546875 117.695312 265.816406 117.914062 266.0625 118.160156 C 266.308594 118.410156 266.527344 118.675781 266.722656 118.964844 C 266.914062 119.257812 267.078125 119.5625 267.210938 119.882812 C 267.34375 120.207031 267.445312 120.539062 267.511719 120.878906 C 267.582031 121.222656 267.613281 121.566406 267.613281 121.917969 C 267.613281 122.265625 267.582031 122.609375 267.511719 122.953125 C 267.445312 123.292969 267.34375 123.625 267.210938 123.949219 C 267.078125 124.269531 266.914062 124.578125 266.722656 124.867188 C 266.527344 125.15625 266.308594 125.425781 266.0625 125.671875 C 265.816406 125.917969 265.546875 126.136719 265.257812 126.332031 C 264.96875 126.527344 264.664062 126.6875 264.339844 126.824219 C 264.019531 126.957031 263.6875 127.058594 263.34375 127.125 C 263.003906 127.191406 262.660156 127.226562 262.3125 127.226562 Z M 262.3125 127.226562 " fill-opacity="1" fill-rule="nonzero"/><path fill="#ffffff" d="M 262.3125 167.378906 L 185.132812 167.378906 C 184.785156 167.378906 184.4375 167.34375 184.097656 167.277344 C 183.753906 167.207031 183.421875 167.109375 183.101562 166.976562 C 182.78125 166.839844 182.472656 166.675781 182.183594 166.484375 C 181.894531 166.289062 181.628906 166.070312 181.382812 165.824219 C 181.136719 165.578125 180.914062 165.308594 180.722656 165.019531 C 180.527344 164.730469 180.363281 164.421875 180.230469 164.101562 C 180.097656 163.777344 179.996094 163.445312 179.929688 163.105469 C 179.863281 162.761719 179.828125 162.417969 179.828125 162.070312 C 179.828125 161.71875 179.863281 161.375 179.929688 161.03125 C 179.996094 160.691406 180.097656 160.359375 180.230469 160.035156 C 180.363281 159.714844 180.527344 159.40625 180.722656 159.117188 C 180.914062 158.828125 181.136719 158.558594 181.382812 158.3125 C 181.628906 158.066406 181.894531 157.847656 182.183594 157.652344 C 182.472656 157.460938 182.78125 157.296875 183.101562 157.164062 C 183.421875 157.027344 183.753906 156.929688 184.097656 156.859375 C 184.4375 156.792969 184.785156 156.757812 185.132812 156.757812 L 262.3125 156.757812 C 262.660156 156.757812 263.003906 156.792969 263.34375 156.859375 C 263.6875 156.929688 264.019531 157.027344 264.339844 157.164062 C 264.664062 157.296875 264.96875 157.460938 265.257812 157.652344 C 265.546875 157.847656 265.816406 158.066406 266.0625 158.3125 C 266.308594 158.558594 266.527344 158.828125 266.722656 159.117188 C 266.914062 159.40625 267.078125 159.714844 267.210938 160.035156 C 267.34375 160.359375 267.445312 160.691406 267.511719 161.03125 C 267.582031 161.375 267.613281 161.71875 267.613281 162.070312 C 267.613281 162.417969 267.582031 162.761719 267.511719 163.105469 C 267.445312 163.445312 267.34375 163.777344 267.210938 164.101562 C 267.078125 164.421875 266.914062 164.730469 266.722656 165.019531 C 266.527344 165.308594 266.308594 165.578125 266.0625 165.824219 C 265.816406 166.070312 265.546875 166.289062 265.257812 166.484375 C 264.96875 166.675781 264.664062 166.839844 264.339844 166.976562 C 264.019531 167.109375 263.6875 167.207031 263.34375 167.277344 C 263.003906 167.34375 262.660156 167.378906 262.3125 167.378906 Z M 262.3125 167.378906 " fill-opacity="1" fill-rule="nonzero"/><path fill="#ffffff" d="M 146.761719 87.085938 L 112.40625 87.085938 C 112.058594 87.085938 111.714844 87.050781 111.371094 86.984375 C 111.03125 86.914062 110.699219 86.816406 110.378906 86.679688 C 110.054688 86.546875 109.75 86.382812 109.460938 86.191406 C 109.171875 85.996094 108.902344 85.777344 108.65625 85.53125 C 108.410156 85.285156 108.191406 85.015625 107.996094 84.726562 C 107.804688 84.4375 107.640625 84.128906 107.507812 83.808594 C 107.375 83.484375 107.273438 83.152344 107.207031 82.8125 C 107.136719 82.46875 107.105469 82.125 107.105469 81.777344 C 107.105469 81.425781 107.136719 81.082031 107.207031 80.738281 C 107.273438 80.398438 107.375 80.066406 107.507812 79.742188 C 107.640625 79.421875 107.804688 79.113281 107.996094 78.824219 C 108.191406 78.535156 108.410156 78.265625 108.65625 78.019531 C 108.902344 77.773438 109.171875 77.554688 109.460938 77.359375 C 109.75 77.167969 110.054688 77.003906 110.378906 76.871094 C 110.699219 76.734375 111.03125 76.636719 111.371094 76.566406 C 111.714844 76.5 112.058594 76.464844 112.40625 76.464844 L 146.761719 76.464844 C 147.109375 76.464844 147.457031 76.5 147.796875 76.566406 C 148.136719 76.636719 148.46875 76.734375 148.792969 76.871094 C 149.113281 77.003906 149.417969 77.167969 149.707031 77.359375 C 150 77.554688 150.265625 77.773438 150.511719 78.019531 C 150.757812 78.265625 150.980469 78.535156 151.171875 78.824219 C 151.367188 79.113281 151.527344 79.421875 151.664062 79.742188 C 151.796875 80.066406 151.894531 80.398438 151.964844 80.738281 C 152.03125 81.082031 152.066406 81.425781 152.066406 81.777344 C 152.066406 82.125 152.03125 82.46875 151.964844 82.8125 C 151.894531 83.152344 151.796875 83.484375 151.664062 83.808594 C 151.527344 84.128906 151.367188 84.4375 151.171875 84.726562 C 150.980469 85.015625 150.757812 85.285156 150.511719 85.53125 C 150.265625 85.777344 150 85.996094 149.707031 86.191406 C 149.417969 86.382812 149.113281 86.546875 148.792969 86.679688 C 148.46875 86.816406 148.136719 86.914062 147.796875 86.984375 C 147.457031 87.050781 147.109375 87.085938 146.761719 87.085938 Z M 146.761719 87.085938 " fill-opacity="1" fill-rule="nonzero"/><path fill="#ffffff" d="M 146.761719 127.226562 L 112.40625 127.226562 C 112.058594 127.226562 111.714844 127.191406 111.371094 127.125 C 111.03125 127.058594 110.699219 126.957031 110.378906 126.824219 C 110.054688 126.6875 109.75 126.527344 109.460938 126.332031 C 109.171875 126.136719 108.902344 125.917969 108.65625 125.671875 C 108.410156 125.425781 108.191406 125.15625 107.996094 124.867188 C 107.804688 124.578125 107.640625 124.269531 107.507812 123.949219 C 107.375 123.625 107.273438 123.292969 107.207031 122.953125 C 107.136719 122.609375 107.105469 122.265625 107.105469 121.917969 C 107.105469 121.566406 107.136719 121.222656 107.207031 120.878906 C 107.273438 120.539062 107.375 120.207031 107.507812 119.882812 C 107.640625 119.5625 107.804688 119.257812 107.996094 118.964844 C 108.191406 118.675781 108.410156 118.410156 108.65625 118.160156 C 108.902344 117.914062 109.171875 117.695312 109.460938 117.5 C 109.75 117.308594 110.054688 117.144531 110.378906 117.011719 C 110.699219 116.878906 111.03125 116.777344 111.371094 116.707031 C 111.714844 116.640625 112.058594 116.605469 112.40625 116.605469 L 146.761719 116.605469 C 147.109375 116.605469 147.457031 116.640625 147.796875 116.707031 C 148.136719 116.777344 148.46875 116.878906 148.792969 117.011719 C 149.113281 117.144531 149.417969 117.308594 149.707031 117.5 C 150 117.695312 150.265625 117.914062 150.511719 118.160156 C 150.757812 118.410156 150.980469 118.675781 151.171875 118.964844 C 151.367188 119.257812 151.527344 119.5625 151.664062 119.882812 C 151.796875 120.207031 151.894531 120.539062 151.964844 120.878906 C 152.03125 121.222656 152.066406 121.566406 152.066406 121.917969 C 152.066406 122.265625 152.03125 122.609375 151.964844 122.953125 C 151.894531 123.292969 151.796875 123.625 151.664062 123.949219 C 151.527344 124.269531 151.367188 124.578125 151.171875 124.867188 C 150.980469 125.15625 150.757812 125.425781 150.511719 125.671875 C 150.265625 125.917969 150 126.136719 149.707031 126.332031 C 149.417969 126.527344 149.113281 126.6875 148.792969 126.824219 C 148.46875 126.957031 148.136719 127.058594 147.796875 127.125 C 147.457031 127.191406 147.109375 127.226562 146.761719 127.226562 Z M 146.761719 127.226562 " fill-opacity="1" fill-rule="nonzero"/><path fill="#ffffff" d="M 146.761719 167.378906 L 112.40625 167.378906 C 112.058594 167.378906 111.714844 167.34375 111.371094 167.277344 C 111.03125 167.207031 110.699219 167.109375 110.378906 166.976562 C 110.054688 166.839844 109.75 166.675781 109.460938 166.484375 C 109.171875 166.289062 108.902344 166.070312 108.65625 165.824219 C 108.410156 165.578125 108.191406 165.308594 107.996094 165.019531 C 107.804688 164.730469 107.640625 164.421875 107.507812 164.101562 C 107.375 163.777344 107.273438 163.445312 107.207031 163.105469 C 107.136719 162.761719 107.105469 162.417969 107.105469 162.070312 C 107.105469 161.71875 107.136719 161.375 107.207031 161.03125 C 107.273438 160.691406 107.375 160.359375 107.507812 160.035156 C 107.640625 159.714844 107.804688 159.40625 107.996094 159.117188 C 108.191406 158.828125 108.410156 158.558594 108.65625 158.3125 C 108.902344 158.066406 109.171875 157.847656 109.460938 157.652344 C 109.75 157.460938 110.054688 157.296875 110.378906 157.164062 C 110.699219 157.027344 111.03125 156.929688 111.371094 156.859375 C 111.714844 156.792969 112.058594 156.757812 112.40625 156.757812 L 146.761719 156.757812 C 147.109375 156.757812 147.457031 156.792969 147.796875 156.859375 C 148.136719 156.929688 148.46875 157.027344 148.792969 157.164062 C 149.113281 157.296875 149.417969 157.460938 149.707031 157.652344 C 150 157.847656 150.265625 158.066406 150.511719 158.3125 C 150.757812 158.558594 150.980469 158.828125 151.171875 159.117188 C 151.367188 159.40625 151.527344 159.714844 151.664062 160.035156 C 151.796875 160.359375 151.894531 160.691406 151.964844 161.03125 C 152.03125 161.375 152.066406 161.71875 152.066406 162.070312 C 152.066406 162.417969 152.03125 162.761719 151.964844 163.105469 C 151.894531 163.445312 151.796875 163.777344 151.664062 164.101562 C 151.527344 164.421875 151.367188 164.730469 151.171875 165.019531 C 150.980469 165.308594 150.757812 165.578125 150.511719 165.824219 C 150.265625 166.070312 150 166.289062 149.707031 166.484375 C 149.417969 166.675781 149.113281 166.839844 148.792969 166.976562 C 148.46875 167.109375 148.136719 167.207031 147.796875 167.277344 C 147.457031 167.34375 147.109375 167.378906 146.761719 167.378906 Z M 146.761719 167.378906 " fill-opacity="1" fill-rule="nonzero"/><path fill="#ffffff" d="M 206.359375 336.914062 L 168.359375 336.914062 C 168.011719 336.914062 167.667969 336.878906 167.324219 336.8125 C 166.984375 336.742188 166.652344 336.640625 166.332031 336.507812 C 166.007812 336.375 165.703125 336.210938 165.414062 336.019531 C 165.125 335.824219 164.855469 335.605469 164.609375 335.359375 C 164.363281 335.109375 164.144531 334.84375 163.949219 334.554688 C 163.757812 334.261719 163.59375 333.957031 163.460938 333.636719 C 163.328125 333.3125 163.226562 332.980469 163.15625 332.636719 C 163.089844 332.296875 163.054688 331.953125 163.054688 331.601562 L 163.054688 272.996094 C 163.054688 272.648438 163.089844 272.304688 163.15625 271.960938 C 163.226562 271.621094 163.328125 271.289062 163.460938 270.964844 C 163.59375 270.644531 163.757812 270.335938 163.949219 270.046875 C 164.144531 269.757812 164.363281 269.488281 164.609375 269.242188 C 164.855469 268.996094 165.125 268.777344 165.414062 268.582031 C 165.703125 268.386719 166.007812 268.222656 166.332031 268.089844 C 166.652344 267.957031 166.984375 267.855469 167.324219 267.789062 C 167.667969 267.722656 168.011719 267.6875 168.359375 267.6875 C 168.707031 267.6875 169.054688 267.722656 169.394531 267.789062 C 169.738281 267.855469 170.066406 267.957031 170.390625 268.089844 C 170.710938 268.222656 171.015625 268.386719 171.308594 268.582031 C 171.597656 268.777344 171.863281 268.996094 172.109375 269.242188 C 172.355469 269.488281 172.578125 269.757812 172.769531 270.046875 C 172.964844 270.335938 173.128906 270.644531 173.261719 270.964844 C 173.394531 271.289062 173.496094 271.621094 173.5625 271.960938 C 173.628906 272.304688 173.664062 272.648438 173.664062 272.996094 L 173.664062 326.292969 L 201.054688 326.292969 L 201.054688 272.996094 C 201.054688 272.648438 201.089844 272.304688 201.15625 271.960938 C 201.222656 271.621094 201.324219 271.289062 201.457031 270.964844 C 201.589844 270.644531 201.753906 270.335938 201.949219 270.046875 C 202.140625 269.757812 202.363281 269.488281 202.609375 269.242188 C 202.855469 268.996094 203.121094 268.777344 203.410156 268.582031 C 203.703125 268.386719 204.007812 268.222656 204.328125 268.089844 C 204.652344 267.957031 204.980469 267.855469 205.324219 267.789062 C 205.664062 267.722656 206.011719 267.6875 206.359375 267.6875 C 206.707031 267.6875 207.050781 267.722656 207.394531 267.789062 C 207.734375 267.855469 208.066406 267.957031 208.386719 268.089844 C 208.710938 268.222656 209.015625 268.386719 209.304688 268.582031 C 209.59375 268.777344 209.863281 268.996094 210.109375 269.242188 C 210.355469 269.488281 210.574219 269.757812 210.769531 270.046875 C 210.960938 270.335938 211.125 270.644531 211.257812 270.964844 C 211.390625 271.289062 211.492188 271.621094 211.5625 271.960938 C 211.628906 272.304688 211.664062 272.648438 211.664062 272.996094 L 211.664062 331.601562 C 211.664062 331.953125 211.628906 332.296875 211.5625 332.636719 C 211.492188 332.980469 211.390625 333.3125 211.257812 333.636719 C 211.125 333.957031 210.960938 334.261719 210.769531 334.554688 C 210.574219 334.84375 210.355469 335.109375 210.109375 335.359375 C 209.863281 335.605469 209.59375 335.824219 209.304688 336.019531 C 209.015625 336.210938 208.710938 336.375 208.386719 336.507812 C 208.066406 336.640625 207.734375 336.742188 207.394531 336.8125 C 207.050781 336.878906 206.707031 336.914062 206.359375 336.914062 Z M 206.359375 336.914062 " fill-opacity="1" fill-rule="nonzero"/><path fill="#ffffff" d="M 241.867188 373.097656 L 132.847656 373.097656 C 132.5 373.097656 132.15625 373.0625 131.816406 372.996094 C 131.472656 372.929688 131.140625 372.828125 130.820312 372.695312 C 130.5 372.558594 130.191406 372.398438 129.902344 372.203125 C 129.613281 372.007812 129.34375 371.789062 129.097656 371.542969 C 128.851562 371.296875 128.632812 371.027344 128.4375 370.738281 C 128.246094 370.449219 128.082031 370.140625 127.949219 369.820312 C 127.816406 369.496094 127.714844 369.164062 127.648438 368.824219 C 127.578125 368.480469 127.546875 368.136719 127.546875 367.789062 L 127.546875 348.671875 C 127.546875 347.9375 127.582031 347.207031 127.65625 346.476562 C 127.726562 345.746094 127.835938 345.023438 127.980469 344.304688 C 128.125 343.585938 128.300781 342.875 128.515625 342.171875 C 128.726562 341.472656 128.972656 340.78125 129.253906 340.105469 C 129.535156 339.425781 129.847656 338.765625 130.195312 338.117188 C 130.539062 337.472656 130.917969 336.84375 131.324219 336.234375 C 131.730469 335.625 132.167969 335.039062 132.628906 334.472656 C 133.09375 333.902344 133.585938 333.363281 134.105469 332.84375 C 134.621094 332.324219 135.164062 331.832031 135.730469 331.367188 C 136.296875 330.902344 136.882812 330.464844 137.492188 330.058594 C 138.101562 329.652344 138.726562 329.273438 139.375 328.929688 C 140.019531 328.582031 140.679688 328.269531 141.355469 327.988281 C 142.035156 327.707031 142.722656 327.460938 143.421875 327.246094 C 144.125 327.035156 144.832031 326.855469 145.550781 326.710938 C 146.269531 326.566406 146.992188 326.460938 147.722656 326.386719 C 148.449219 326.3125 149.179688 326.277344 149.914062 326.277344 L 224.804688 326.277344 C 225.539062 326.277344 226.269531 326.3125 226.996094 326.386719 C 227.726562 326.460938 228.449219 326.566406 229.167969 326.710938 C 229.886719 326.855469 230.59375 327.035156 231.296875 327.246094 C 231.996094 327.460938 232.683594 327.707031 233.363281 327.988281 C 234.039062 328.269531 234.699219 328.582031 235.34375 328.929688 C 235.992188 329.273438 236.617188 329.652344 237.226562 330.058594 C 237.835938 330.464844 238.421875 330.902344 238.988281 331.367188 C 239.554688 331.832031 240.097656 332.324219 240.613281 332.84375 C 241.132812 333.363281 241.625 333.902344 242.089844 334.472656 C 242.550781 335.039062 242.988281 335.625 243.394531 336.234375 C 243.800781 336.84375 244.179688 337.472656 244.523438 338.117188 C 244.871094 338.765625 245.183594 339.425781 245.464844 340.105469 C 245.742188 340.78125 245.992188 341.472656 246.203125 342.171875 C 246.417969 342.875 246.59375 343.585938 246.738281 344.304688 C 246.882812 345.023438 246.992188 345.746094 247.0625 346.476562 C 247.136719 347.207031 247.171875 347.9375 247.171875 348.671875 L 247.171875 367.789062 C 247.171875 368.136719 247.140625 368.480469 247.070312 368.824219 C 247.003906 369.164062 246.902344 369.496094 246.769531 369.820312 C 246.636719 370.140625 246.472656 370.449219 246.277344 370.738281 C 246.085938 371.027344 245.867188 371.296875 245.621094 371.542969 C 245.375 371.789062 245.105469 372.007812 244.816406 372.203125 C 244.527344 372.398438 244.21875 372.558594 243.898438 372.695312 C 243.578125 372.828125 243.246094 372.929688 242.902344 372.996094 C 242.5625 373.0625 242.21875 373.097656 241.867188 373.097656 Z M 138.152344 362.476562 L 236.566406 362.476562 L 236.566406 348.671875 C 236.5625 347.898438 236.488281 347.132812 236.335938 346.375 C 236.1875 345.617188 235.960938 344.878906 235.667969 344.167969 C 235.371094 343.453125 235.007812 342.773438 234.578125 342.132812 C 234.152344 341.488281 233.664062 340.894531 233.117188 340.347656 C 232.570312 339.800781 231.976562 339.3125 231.335938 338.882812 C 230.695312 338.453125 230.015625 338.09375 229.304688 337.796875 C 228.589844 337.5 227.855469 337.277344 227.097656 337.125 C 226.34375 336.972656 225.578125 336.898438 224.804688 336.898438 L 149.914062 336.898438 C 149.140625 336.898438 148.375 336.972656 147.621094 337.125 C 146.863281 337.277344 146.128906 337.5 145.414062 337.796875 C 144.703125 338.09375 144.023438 338.453125 143.382812 338.882812 C 142.742188 339.3125 142.148438 339.800781 141.601562 340.347656 C 141.054688 340.894531 140.566406 341.488281 140.136719 342.132812 C 139.710938 342.773438 139.347656 343.453125 139.050781 344.167969 C 138.757812 344.878906 138.53125 345.617188 138.382812 346.375 C 138.230469 347.132812 138.15625 347.898438 138.152344 348.671875 Z M 138.152344 362.476562 " fill-opacity="1" fill-rule="nonzero"/></svg>