<svg xmlns="http://www.w3.org/2000/svg" xmlns:xlink="http://www.w3.org/1999/xlink" width="500" zoomAndPan="magnify" viewBox="0 0 375 374.999991" height="500" preserveAspectRatio="xMidYMid meet" version="1.0"><path fill="#ffffff" d="M 232.265625 48.933594 L 225.773438 45.390625 C 196.253906 26.183594 191.53125 16.730469 188.875 6.6875 C 188.785156 6.234375 188.660156 5.796875 188.496094 5.367188 C 188.332031 4.9375 188.132812 4.527344 187.898438 4.132812 C 187.664062 3.738281 187.398438 3.367188 187.097656 3.015625 C 186.800781 2.667969 186.472656 2.347656 186.117188 2.058594 C 185.765625 1.765625 185.386719 1.503906 184.988281 1.277344 C 184.589844 1.050781 184.175781 0.859375 183.742188 0.707031 C 183.3125 0.550781 182.871094 0.433594 182.417969 0.355469 C 181.964844 0.277344 181.511719 0.238281 181.050781 0.238281 C 180.59375 0.238281 180.136719 0.277344 179.683594 0.355469 C 179.234375 0.433594 178.792969 0.550781 178.359375 0.707031 C 177.925781 0.859375 177.511719 1.050781 177.113281 1.277344 C 176.714844 1.503906 176.335938 1.765625 175.984375 2.058594 C 175.628906 2.347656 175.304688 2.667969 175.003906 3.015625 C 174.707031 3.367188 174.4375 3.738281 174.203125 4.132812 C 173.96875 4.527344 173.769531 4.9375 173.605469 5.367188 C 173.441406 5.796875 173.316406 6.234375 173.226562 6.6875 L 173.226562 278.792969 C 171.066406 277.566406 168.835938 276.472656 166.542969 275.515625 C 164.246094 274.554688 161.902344 273.742188 159.507812 273.070312 C 157.113281 272.394531 154.6875 271.871094 152.230469 271.492188 C 149.769531 271.117188 147.300781 270.886719 144.8125 270.8125 C 142.328125 270.734375 139.847656 270.808594 137.371094 271.035156 C 134.894531 271.257812 132.441406 271.632812 130.007812 272.15625 C 127.578125 272.679688 125.1875 273.347656 122.835938 274.160156 C 120.488281 274.976562 118.195312 275.929688 115.960938 277.019531 C 114.339844 277.511719 112.75 278.078125 111.183594 278.722656 C 109.617188 279.371094 108.089844 280.089844 106.59375 280.886719 C 105.097656 281.679688 103.648438 282.546875 102.238281 283.484375 C 100.828125 284.421875 99.464844 285.425781 98.152344 286.496094 C 96.84375 287.566406 95.585938 288.699219 94.382812 289.894531 C 93.183594 291.085938 92.042969 292.335938 90.960938 293.640625 C 89.882812 294.945312 88.871094 296.300781 87.921875 297.703125 C 86.976562 299.109375 86.097656 300.554688 85.292969 302.046875 C 84.488281 303.535156 83.757812 305.0625 83.101562 306.621094 C 82.441406 308.183594 81.863281 309.773438 81.363281 311.390625 C 80.859375 313.011719 80.4375 314.648438 80.097656 316.308594 C 79.757812 317.96875 79.496094 319.640625 79.320312 321.324219 C 79.140625 323.007812 79.042969 324.699219 79.03125 326.394531 C 79.019531 328.085938 79.085938 329.777344 79.238281 331.464844 C 79.390625 333.152344 79.625 334.828125 79.941406 336.492188 C 80.257812 338.15625 80.652344 339.800781 81.128906 341.429688 C 82.027344 342.820312 82.992188 344.164062 84.019531 345.464844 C 85.046875 346.761719 86.136719 348.007812 87.285156 349.203125 C 88.433594 350.394531 89.636719 351.53125 90.894531 352.609375 C 92.152344 353.6875 93.457031 354.703125 94.8125 355.65625 C 96.167969 356.609375 97.5625 357.492188 99.003906 358.3125 C 100.441406 359.128906 101.917969 359.875 103.429688 360.550781 C 104.941406 361.230469 106.484375 361.832031 108.050781 362.359375 C 109.621094 362.886719 111.214844 363.335938 112.824219 363.710938 C 114.4375 364.085938 116.066406 364.382812 117.707031 364.601562 C 119.347656 364.820312 120.996094 364.957031 122.652344 365.015625 C 124.304688 365.078125 125.960938 365.054688 127.613281 364.957031 C 129.265625 364.855469 130.910156 364.679688 132.542969 364.421875 C 134.179688 364.164062 135.796875 363.828125 137.402344 363.414062 C 139.003906 363 140.585938 362.507812 142.140625 361.945312 C 143.695312 361.378906 145.222656 360.738281 146.71875 360.027344 C 148.210938 359.3125 149.667969 358.53125 151.089844 357.679688 C 152.445312 357.203125 153.78125 356.679688 155.097656 356.101562 C 156.414062 355.523438 157.707031 354.898438 158.976562 354.222656 C 160.242188 353.546875 161.484375 352.824219 162.699219 352.054688 C 163.910156 351.285156 165.09375 350.46875 166.246094 349.609375 C 167.394531 348.75 168.511719 347.84375 169.59375 346.898438 C 170.675781 345.953125 171.71875 344.964844 172.726562 343.941406 C 173.734375 342.914062 174.699219 341.851562 175.625 340.75 C 176.550781 339.652344 177.433594 338.515625 178.269531 337.347656 C 179.109375 336.183594 179.902344 334.984375 180.652344 333.757812 C 181.398438 332.527344 182.097656 331.273438 182.75 329.992188 C 183.398438 328.710938 184 327.40625 184.554688 326.078125 C 185.105469 324.75 185.605469 323.402344 186.054688 322.035156 C 186.503906 320.671875 186.898438 319.289062 187.242188 317.890625 C 187.585938 316.496094 187.875 315.089844 188.113281 313.671875 C 188.347656 312.25 188.53125 310.824219 188.65625 309.394531 C 188.785156 307.960938 188.855469 306.527344 188.875 305.089844 L 188.875 36.230469 C 197.949219 44.722656 207.789062 52.207031 218.394531 58.683594 L 224.296875 62.230469 C 253.816406 81.140625 283.335938 102.117188 271.527344 133.136719 C 271.316406 133.597656 271.15625 134.078125 271.046875 134.574219 C 270.941406 135.070312 270.886719 135.570312 270.882812 136.078125 C 270.882812 136.585938 270.9375 137.089844 271.042969 137.585938 C 271.152344 138.082031 271.308594 138.5625 271.519531 139.023438 C 271.730469 139.484375 271.984375 139.921875 272.289062 140.328125 C 272.59375 140.734375 272.933594 141.105469 273.316406 141.4375 C 273.699219 141.769531 274.113281 142.058594 274.558594 142.304688 C 275.003906 142.546875 275.46875 142.742188 275.957031 142.886719 C 276.390625 143.007812 276.835938 143.089844 277.289062 143.128906 C 277.738281 143.167969 278.191406 143.167969 278.644531 143.125 C 279.09375 143.082031 279.539062 142.996094 279.972656 142.871094 C 280.410156 142.746094 280.832031 142.582031 281.234375 142.378906 C 281.640625 142.175781 282.023438 141.9375 282.386719 141.664062 C 282.75 141.390625 283.082031 141.085938 283.386719 140.75 C 283.695312 140.414062 283.964844 140.054688 284.207031 139.667969 C 284.445312 139.28125 284.644531 138.878906 284.8125 138.457031 C 302.816406 92.957031 257.0625 64.296875 232.265625 48.933594 Z M 232.265625 48.933594 " fill-opacity="1" fill-rule="nonzero"/></svg>