<svg xmlns="http://www.w3.org/2000/svg" xmlns:xlink="http://www.w3.org/1999/xlink" width="500" zoomAndPan="magnify" viewBox="0 0 375 374.999991" height="500" preserveAspectRatio="xMidYMid meet" version="1.0"><defs><clipPath id="id1"><path d="M 232 57.738281 L 373.492188 57.738281 L 373.492188 299.632812 L 232 299.632812 Z M 232 57.738281 " clip-rule="nonzero"/></clipPath><clipPath id="id2"><path d="M 1.507812 57.738281 L 143 57.738281 L 143 299.632812 L 1.507812 299.632812 Z M 1.507812 57.738281 " clip-rule="nonzero"/></clipPath></defs><path fill="#ffffff" d="M 302.765625 258.328125 C 296.320312 263.996094 288.351562 266.554688 280.296875 265.519531 C 261.765625 263.160156 247.234375 242.882812 247.234375 219.324219 C 247.234375 195.914062 261.648438 177.476562 280.066406 177.417969 C 280.121094 177.417969 280.152344 177.417969 280.207031 177.417969 C 288.179688 177.417969 296.121094 180.929688 302.566406 187.34375 C 311.570312 196.289062 316.722656 209.605469 316.722656 223.8125 C 316.722656 237.933594 311.628906 250.503906 302.765625 258.328125 Z M 280.207031 173.738281 C 280.152344 173.738281 280.09375 173.738281 280.066406 173.738281 C 259.578125 173.824219 243.550781 193.84375 243.550781 219.324219 C 243.550781 244.695312 259.492188 266.582031 279.835938 269.171875 C 281.160156 269.34375 282.480469 269.429688 283.804688 269.429688 C 291.515625 269.429688 299.027344 266.527344 305.183594 261.089844 C 314.851562 252.574219 320.40625 239 320.40625 223.8125 C 320.40625 208.625 314.851562 194.359375 305.15625 184.726562 C 298.046875 177.621094 289.15625 173.738281 280.207031 173.738281 " fill-opacity="1" fill-rule="nonzero"/><path fill="#ffffff" d="M 297.328125 249.871094 C 292.4375 254.214844 286.367188 256.226562 280.265625 255.566406 C 266.023438 253.957031 254.457031 237.90625 254.457031 219.757812 C 254.457031 209.605469 258.023438 200.257812 264.238281 194.101562 C 268.699219 189.699219 274.082031 187.371094 279.835938 187.371094 C 279.890625 187.371094 279.980469 187.371094 280.035156 187.371094 C 295.199219 187.515625 308.003906 203.96875 308.003906 223.296875 C 308.003906 234.109375 304.121094 243.804688 297.328125 249.871094 Z M 280.09375 183.6875 C 279.980469 183.6875 279.890625 183.6875 279.835938 183.6875 C 273.101562 183.6875 266.828125 186.394531 261.648438 191.484375 C 254.746094 198.328125 250.773438 208.625 250.773438 219.757812 C 250.773438 240.035156 263.550781 257.378906 279.835938 259.21875 C 280.785156 259.304688 281.707031 259.363281 282.625 259.363281 C 288.839844 259.363281 294.855469 257.035156 299.773438 252.605469 C 307.34375 245.84375 311.6875 235.175781 311.6875 223.296875 C 311.6875 201.609375 297.5 183.863281 280.09375 183.6875 " fill-opacity="1" fill-rule="nonzero"/><path fill="#ffffff" d="M 281.675781 192.664062 C 281.675781 191.65625 280.84375 190.824219 279.835938 190.824219 C 267.75 190.824219 257.910156 203.792969 257.910156 219.757812 C 257.910156 220.792969 258.742188 221.597656 259.75 221.597656 C 260.785156 221.597656 261.59375 220.792969 261.59375 219.757812 C 261.59375 205.835938 269.765625 194.503906 279.835938 194.503906 C 280.84375 194.503906 281.675781 193.667969 281.675781 192.664062 " fill-opacity="1" fill-rule="nonzero"/><path fill="#ffffff" d="M 280.265625 95.386719 C 281.042969 95.300781 281.761719 95.246094 282.511719 95.246094 C 286.882812 95.246094 291 96.882812 294.566406 100.019531 C 300.265625 105.050781 303.542969 113.164062 303.542969 122.28125 C 303.542969 138.589844 292.753906 152.710938 280.007812 153.144531 C 275 153.257812 270.453125 151.445312 266.628906 147.734375 C 261.332031 142.644531 258.3125 134.765625 258.3125 126.105469 C 258.3125 110.632812 268.179688 96.855469 280.265625 95.386719 Z M 279.375 156.824219 C 279.632812 156.824219 279.863281 156.824219 280.121094 156.824219 C 295.054688 156.308594 307.226562 140.832031 307.226562 122.28125 C 307.226562 112.128906 303.488281 102.980469 297.011719 97.257812 C 292.121094 92.941406 285.992188 90.957031 279.835938 91.734375 C 265.707031 93.460938 254.628906 108.5625 254.628906 126.105469 C 254.628906 135.742188 258.082031 144.601562 264.066406 150.410156 C 268.441406 154.609375 273.734375 156.824219 279.375 156.824219 " fill-opacity="1" fill-rule="nonzero"/><path fill="#ffffff" d="M 280.238281 113.363281 C 280.4375 113.335938 280.640625 113.335938 280.84375 113.335938 C 282.453125 113.335938 283.949219 113.941406 285.214844 115.089844 C 287.289062 116.988281 288.496094 120.039062 288.496094 123.460938 C 288.496094 129.53125 284.582031 134.878906 279.949219 135.167969 C 278.28125 135.253906 276.527344 134.648438 275.117188 133.324219 C 273.074219 131.398438 271.921875 128.40625 271.921875 125.042969 C 271.921875 119.058594 275.664062 113.796875 280.238281 113.363281 Z M 279.605469 138.878906 C 279.777344 138.878906 279.980469 138.847656 280.179688 138.847656 C 286.796875 138.445312 292.179688 131.542969 292.179688 123.460938 C 292.179688 119.003906 290.539062 114.976562 287.691406 112.386719 C 285.472656 110.375 282.683594 109.425781 279.890625 109.683594 C 273.359375 110.316406 268.238281 117.074219 268.238281 125.042969 C 268.238281 129.414062 269.820312 133.382812 272.582031 136 C 274.570312 137.871094 277.042969 138.878906 279.605469 138.878906 " fill-opacity="1" fill-rule="nonzero"/><path fill="#ffffff" d="M 282.453125 226.054688 C 281.992188 226.488281 281.160156 227.003906 280.207031 226.917969 C 277.992188 226.746094 276.152344 224.101562 276.152344 221.109375 C 276.152344 219.414062 276.757812 217.832031 277.761719 216.882812 C 278.195312 216.480469 278.886719 215.988281 279.835938 215.988281 C 279.863281 215.988281 279.921875 216.019531 279.949219 216.019531 C 282.195312 216.105469 284.066406 218.78125 284.066406 221.828125 C 284.066406 223.527344 283.460938 225.105469 282.453125 226.054688 Z M 280.152344 212.335938 C 278.367188 212.222656 276.582031 212.910156 275.203125 214.207031 C 273.476562 215.875 272.46875 218.375 272.46875 221.109375 C 272.46875 226.113281 275.75 230.285156 279.921875 230.570312 C 280.09375 230.601562 280.238281 230.601562 280.382812 230.601562 C 282.050781 230.601562 283.660156 229.941406 284.957031 228.761719 C 286.710938 227.09375 287.746094 224.5625 287.746094 221.828125 C 287.746094 216.796875 284.351562 212.539062 280.152344 212.335938 " fill-opacity="1" fill-rule="nonzero"/><path fill="#ffffff" d="M 247.320312 92.800781 C 249.160156 92.570312 250.660156 90.382812 250.660156 87.9375 C 250.660156 85.523438 249.160156 83.738281 247.320312 84.027344 C 245.480469 84.285156 244.011719 86.441406 244.011719 88.859375 C 244.011719 91.273438 245.480469 93.03125 247.320312 92.800781 " fill-opacity="1" fill-rule="nonzero"/><path fill="#ffffff" d="M 316.203125 83.882812 C 318.449219 83.59375 320.289062 81.179688 320.289062 78.476562 C 320.289062 75.800781 318.449219 73.875 316.203125 74.191406 C 313.988281 74.507812 312.175781 76.921875 312.175781 79.597656 C 312.175781 82.242188 313.988281 84.171875 316.203125 83.882812 " fill-opacity="1" fill-rule="nonzero"/><path fill="#ffffff" d="M 316.203125 273.429688 C 313.988281 273.140625 312.175781 275.066406 312.175781 277.714844 C 312.175781 280.390625 313.988281 282.804688 316.203125 283.121094 C 318.449219 283.4375 320.289062 281.511719 320.289062 278.835938 C 320.289062 276.132812 318.449219 273.714844 316.203125 273.429688 " fill-opacity="1" fill-rule="nonzero"/><path fill="#ffffff" d="M 247.320312 264.511719 C 245.480469 264.28125 244.011719 266.066406 244.011719 268.453125 C 244.011719 270.867188 245.480469 273.054688 247.320312 273.3125 C 249.160156 273.574219 250.660156 271.789062 250.660156 269.371094 C 250.660156 266.929688 249.160156 264.769531 247.320312 264.511719 " fill-opacity="1" fill-rule="nonzero"/><g clip-path="url(#id1)"><path fill="#ffffff" d="M 369.808594 261.921875 C 369.808594 267.476562 366.761719 272.566406 361.867188 275.242188 L 333.324219 290.65625 C 333.671875 289.363281 333.929688 288.039062 333.929688 286.601562 L 333.929688 70.710938 C 333.929688 68.867188 333.585938 67.171875 333.007812 65.589844 L 360.917969 78.21875 C 366.328125 80.660156 369.808594 86.070312 369.808594 91.992188 Z M 330.246094 286.601562 C 330.246094 289.792969 329.09375 292.613281 327.109375 294.308594 C 325.527344 295.632812 323.628906 296.152344 321.613281 295.835938 L 243.464844 283.238281 C 239.753906 282.632812 236.644531 277.773438 236.644531 272.59375 L 236.644531 84.71875 C 236.644531 79.539062 239.753906 74.679688 243.464844 74.074219 L 321.613281 61.476562 C 323.628906 61.160156 325.527344 61.679688 327.109375 63 C 329.09375 64.699219 330.246094 67.515625 330.246094 70.710938 Z M 362.445312 74.878906 L 328.492188 59.492188 L 328.492188 59.519531 C 326.304688 58.027344 323.714844 57.394531 321.011719 57.851562 L 242.890625 70.449219 C 237.335938 71.34375 232.960938 77.613281 232.960938 84.71875 L 232.960938 272.59375 C 232.960938 279.699219 237.335938 285.96875 242.890625 286.890625 L 321.011719 299.488281 C 321.613281 299.574219 322.191406 299.632812 322.765625 299.632812 C 325.238281 299.632812 327.570312 298.769531 329.5 297.128906 C 329.613281 297.015625 329.699219 296.839844 329.84375 296.726562 L 363.625 278.460938 C 369.695312 275.183594 373.492188 268.828125 373.492188 261.921875 L 373.492188 91.992188 C 373.492188 84.632812 369.148438 77.902344 362.445312 74.878906 " fill-opacity="1" fill-rule="nonzero"/></g><path fill="#ffffff" d="M 320.289062 98.003906 C 319.285156 98.003906 318.449219 98.839844 318.449219 99.847656 L 318.449219 185.675781 C 318.449219 186.679688 319.285156 187.515625 320.289062 187.515625 C 321.296875 187.515625 322.132812 186.679688 322.132812 185.675781 L 322.132812 99.847656 C 322.132812 98.839844 321.296875 98.003906 320.289062 98.003906 " fill-opacity="1" fill-rule="nonzero"/><g clip-path="url(#id2)"><path fill="#ffffff" d="M 138.355469 272.59375 C 138.355469 277.773438 135.21875 282.632812 131.535156 283.238281 L 53.386719 295.835938 C 51.398438 296.152344 49.472656 295.660156 47.917969 294.308594 C 45.90625 292.613281 44.753906 289.792969 44.753906 286.601562 L 44.753906 70.710938 C 44.753906 67.515625 45.90625 64.699219 47.917969 63 C 49.472656 61.679688 51.371094 61.160156 53.386719 61.476562 L 131.535156 74.074219 C 135.21875 74.679688 138.355469 79.539062 138.355469 84.71875 Z M 41.644531 290.65625 L 13.132812 275.242188 C 8.238281 272.566406 5.191406 267.476562 5.191406 261.921875 L 5.191406 91.992188 C 5.191406 86.070312 8.671875 80.660156 14.082031 78.21875 L 41.992188 65.589844 C 41.414062 67.171875 41.070312 68.867188 41.070312 70.710938 L 41.070312 286.601562 C 41.070312 288.039062 41.328125 289.363281 41.644531 290.65625 Z M 132.109375 70.449219 L 53.988281 57.851562 C 51.285156 57.394531 48.695312 58.027344 46.507812 59.519531 L 46.507812 59.492188 L 12.554688 74.878906 C 5.851562 77.902344 1.507812 84.632812 1.507812 91.992188 L 1.507812 261.921875 C 1.507812 268.828125 5.277344 275.183594 11.375 278.460938 L 45.15625 296.726562 C 45.273438 296.839844 45.386719 297.015625 45.53125 297.128906 C 47.429688 298.769531 49.789062 299.632812 52.234375 299.632812 C 52.808594 299.632812 53.386719 299.574219 53.988281 299.488281 L 132.109375 286.890625 C 137.664062 285.96875 142.039062 279.699219 142.039062 272.59375 L 142.039062 84.71875 C 142.039062 77.613281 137.664062 71.34375 132.109375 70.449219 " fill-opacity="1" fill-rule="nonzero"/></g><path fill="#ffffff" d="M 94.703125 265.519531 C 86.675781 266.554688 78.679688 263.996094 72.234375 258.328125 C 63.371094 250.503906 58.277344 237.933594 58.277344 223.8125 C 58.277344 209.605469 63.429688 196.289062 72.433594 187.34375 C 78.878906 180.929688 86.820312 177.417969 94.820312 177.417969 C 94.847656 177.417969 94.878906 177.417969 94.933594 177.417969 C 113.351562 177.476562 127.765625 195.914062 127.765625 219.324219 C 127.765625 242.882812 113.234375 263.160156 94.703125 265.519531 Z M 94.933594 173.738281 C 94.90625 173.738281 94.847656 173.738281 94.820312 173.738281 C 85.84375 173.738281 76.980469 177.621094 69.84375 184.726562 C 60.148438 194.359375 54.59375 208.625 54.59375 223.8125 C 54.59375 239 60.117188 252.574219 69.785156 261.089844 C 76 266.527344 83.484375 269.429688 91.222656 269.429688 C 92.519531 269.429688 93.839844 269.34375 95.164062 269.171875 C 115.507812 266.582031 131.449219 244.695312 131.449219 219.324219 C 131.449219 193.84375 115.421875 173.824219 94.933594 173.738281 " fill-opacity="1" fill-rule="nonzero"/><path fill="#ffffff" d="M 94.734375 255.566406 C 88.605469 256.226562 82.5625 254.214844 77.671875 249.871094 C 70.878906 243.804688 66.996094 234.109375 66.996094 223.296875 C 66.996094 203.96875 79.800781 187.515625 94.964844 187.371094 C 95.019531 187.371094 95.109375 187.371094 95.164062 187.371094 C 100.917969 187.371094 106.300781 189.699219 110.761719 194.101562 C 116.976562 200.257812 120.542969 209.605469 120.542969 219.757812 C 120.542969 237.90625 108.976562 253.957031 94.734375 255.566406 Z M 94.90625 183.6875 C 77.5 183.863281 63.3125 201.609375 63.3125 223.296875 C 63.3125 235.175781 67.65625 245.84375 75.226562 252.605469 C 80.175781 257.035156 86.160156 259.363281 92.375 259.363281 C 93.292969 259.363281 94.214844 259.304688 95.136719 259.21875 C 111.449219 257.378906 124.226562 240.035156 124.226562 219.757812 C 124.226562 208.625 120.253906 198.328125 113.351562 191.484375 C 108.113281 186.308594 101.554688 183.632812 94.90625 183.6875 " fill-opacity="1" fill-rule="nonzero"/><path fill="#ffffff" d="M 95.164062 190.824219 C 94.15625 190.824219 93.324219 191.65625 93.324219 192.664062 C 93.324219 193.667969 94.15625 194.503906 95.164062 194.503906 C 105.207031 194.503906 113.40625 205.835938 113.40625 219.757812 C 113.40625 220.792969 114.214844 221.597656 115.25 221.597656 C 116.257812 221.597656 117.089844 220.792969 117.089844 219.757812 C 117.089844 203.792969 107.25 190.824219 95.164062 190.824219 " fill-opacity="1" fill-rule="nonzero"/><path fill="#ffffff" d="M 80.433594 100.019531 C 84.578125 96.335938 89.527344 94.753906 94.703125 95.386719 C 106.820312 96.855469 116.6875 110.632812 116.6875 126.105469 C 116.6875 134.765625 113.667969 142.644531 108.371094 147.734375 C 104.546875 151.445312 99.96875 153.289062 94.992188 153.144531 C 82.246094 152.710938 71.484375 138.589844 71.484375 122.28125 C 71.484375 113.164062 74.734375 105.050781 80.433594 100.019531 Z M 94.878906 156.824219 C 95.136719 156.824219 95.367188 156.824219 95.625 156.824219 C 101.292969 156.824219 106.558594 154.609375 110.933594 150.410156 C 116.917969 144.601562 120.371094 135.742188 120.371094 126.105469 C 120.371094 108.5625 109.292969 93.460938 95.164062 91.734375 C 89.007812 90.957031 82.878906 92.941406 77.988281 97.257812 C 71.511719 102.980469 67.800781 112.128906 67.800781 122.28125 C 67.800781 140.832031 79.945312 156.308594 94.878906 156.824219 " fill-opacity="1" fill-rule="nonzero"/><path fill="#ffffff" d="M 89.785156 115.089844 C 91.050781 113.941406 92.574219 113.335938 94.15625 113.335938 C 94.359375 113.335938 94.5625 113.335938 94.761719 113.363281 C 99.335938 113.796875 103.078125 119.058594 103.078125 125.042969 C 103.078125 128.40625 101.925781 131.398438 99.882812 133.324219 C 98.589844 134.535156 97.0625 135.195312 95.425781 135.195312 C 95.28125 135.167969 94.992188 135.109375 95.050781 135.167969 C 90.417969 134.878906 86.503906 129.53125 86.503906 123.460938 C 86.503906 120.039062 87.683594 116.988281 89.785156 115.089844 Z M 94.820312 138.847656 C 95.019531 138.847656 95.222656 138.878906 95.425781 138.878906 C 97.984375 138.878906 100.429688 137.871094 102.417969 136 C 105.179688 133.382812 106.761719 129.414062 106.761719 125.042969 C 106.761719 117.074219 101.640625 110.316406 95.109375 109.683594 C 92.289062 109.425781 89.527344 110.375 87.308594 112.386719 C 84.460938 114.976562 82.820312 119.003906 82.820312 123.460938 C 82.820312 131.542969 88.203125 138.445312 94.820312 138.847656 " fill-opacity="1" fill-rule="nonzero"/><path fill="#ffffff" d="M 94.820312 226.917969 L 94.792969 226.917969 C 93.8125 227.003906 93.007812 226.488281 92.546875 226.054688 C 91.539062 225.105469 90.933594 223.527344 90.933594 221.828125 C 90.933594 218.78125 92.804688 216.105469 95.019531 216.019531 C 95.078125 216.019531 95.136719 215.988281 95.164062 215.988281 C 96.113281 215.988281 96.804688 216.480469 97.238281 216.882812 C 98.242188 217.832031 98.847656 219.414062 98.847656 221.109375 C 98.847656 224.101562 97.007812 226.746094 94.820312 226.917969 Z M 94.847656 212.335938 C 90.648438 212.539062 87.253906 216.796875 87.253906 221.828125 C 87.253906 224.5625 88.257812 227.09375 90.042969 228.761719 C 91.339844 229.941406 92.949219 230.601562 94.617188 230.601562 C 94.761719 230.601562 94.90625 230.601562 95.078125 230.570312 C 99.25 230.285156 102.53125 226.113281 102.53125 221.109375 C 102.53125 218.375 101.523438 215.875 99.769531 214.207031 C 98.417969 212.910156 96.71875 212.222656 94.847656 212.335938 " fill-opacity="1" fill-rule="nonzero"/><path fill="#ffffff" d="M 127.679688 92.800781 C 129.519531 93.03125 130.988281 91.273438 130.988281 88.859375 C 130.988281 86.441406 129.519531 84.285156 127.679688 84.027344 C 125.839844 83.738281 124.339844 85.523438 124.339844 87.9375 C 124.339844 90.382812 125.839844 92.570312 127.679688 92.800781 " fill-opacity="1" fill-rule="nonzero"/><path fill="#ffffff" d="M 58.796875 83.882812 C 61.011719 84.171875 62.824219 82.242188 62.824219 79.597656 C 62.824219 76.921875 61.011719 74.507812 58.796875 74.191406 C 56.550781 73.875 54.710938 75.800781 54.710938 78.476562 C 54.710938 81.179688 56.550781 83.59375 58.796875 83.882812 " fill-opacity="1" fill-rule="nonzero"/><path fill="#ffffff" d="M 58.796875 273.429688 C 56.550781 273.714844 54.710938 276.132812 54.710938 278.835938 C 54.710938 281.511719 56.550781 283.4375 58.796875 283.121094 C 61.011719 282.804688 62.824219 280.390625 62.824219 277.714844 C 62.824219 275.066406 61.011719 273.140625 58.796875 273.429688 " fill-opacity="1" fill-rule="nonzero"/><path fill="#ffffff" d="M 127.679688 264.511719 C 125.839844 264.769531 124.339844 266.929688 124.339844 269.371094 C 124.339844 271.789062 125.839844 273.574219 127.679688 273.3125 C 129.519531 273.054688 130.988281 270.867188 130.988281 268.453125 C 130.988281 266.066406 129.519531 264.28125 127.679688 264.511719 " fill-opacity="1" fill-rule="nonzero"/><path fill="#ffffff" d="M 56.550781 185.675781 L 56.550781 99.847656 C 56.550781 98.839844 55.746094 98.003906 54.710938 98.003906 C 53.703125 98.003906 52.867188 98.839844 52.867188 99.847656 L 52.867188 185.675781 C 52.867188 186.679688 53.703125 187.515625 54.710938 187.515625 C 55.746094 187.515625 56.550781 186.679688 56.550781 185.675781 " fill-opacity="1" fill-rule="nonzero"/><path fill="#ffffff" d="M 156.425781 182.421875 C 155.589844 181.820312 154.4375 182.050781 153.863281 182.882812 C 153.289062 183.71875 153.488281 184.867188 154.324219 185.445312 C 165.546875 193.210938 172.480469 208.941406 172.480469 226.515625 C 172.480469 242.652344 166.640625 257.292969 156.828125 265.664062 C 156.050781 266.324219 155.964844 267.476562 156.625 268.25 C 156.972656 268.683594 157.488281 268.914062 158.007812 268.914062 C 158.4375 268.914062 158.871094 268.769531 159.214844 268.453125 C 169.832031 259.390625 176.164062 243.714844 176.164062 226.515625 C 176.164062 207.761719 168.59375 190.851562 156.425781 182.421875 " fill-opacity="1" fill-rule="nonzero"/><path fill="#ffffff" d="M 154.09375 200.515625 C 153.34375 199.855469 152.164062 199.941406 151.503906 200.714844 C 150.84375 201.492188 150.929688 202.671875 151.707031 203.335938 C 156.625 207.503906 159.789062 216.449219 159.789062 226.085938 C 159.789062 234.945312 157.113281 243.257812 152.800781 247.800781 C 152.078125 248.550781 152.109375 249.726562 152.855469 250.417969 C 153.203125 250.761719 153.660156 250.9375 154.121094 250.9375 C 154.613281 250.9375 155.101562 250.734375 155.445312 250.359375 C 160.480469 245.070312 163.472656 236.007812 163.472656 226.085938 C 163.472656 215.242188 159.878906 205.460938 154.09375 200.515625 " fill-opacity="1" fill-rule="nonzero"/><path fill="#ffffff" d="M 199.382812 226.515625 C 199.382812 208.941406 206.347656 193.210938 217.539062 185.445312 C 218.375 184.867188 218.574219 183.71875 218 182.882812 C 217.425781 182.050781 216.273438 181.847656 215.4375 182.421875 C 203.269531 190.851562 195.699219 207.761719 195.699219 226.515625 C 195.699219 243.714844 202.03125 259.390625 212.648438 268.453125 C 213.023438 268.769531 213.425781 268.914062 213.855469 268.914062 C 214.375 268.914062 214.890625 268.683594 215.265625 268.25 C 215.898438 267.476562 215.8125 266.324219 215.035156 265.664062 C 205.222656 257.292969 199.382812 242.652344 199.382812 226.515625 " fill-opacity="1" fill-rule="nonzero"/><path fill="#ffffff" d="M 217.769531 200.515625 C 211.988281 205.460938 208.390625 215.242188 208.390625 226.085938 C 208.390625 236.007812 211.382812 245.070312 216.417969 250.359375 C 216.761719 250.734375 217.253906 250.9375 217.742188 250.9375 C 218.203125 250.9375 218.660156 250.761719 219.035156 250.417969 C 219.753906 249.726562 219.785156 248.550781 219.066406 247.800781 C 214.777344 243.257812 212.074219 234.945312 212.074219 226.085938 C 212.074219 216.449219 215.238281 207.503906 220.15625 203.335938 C 220.933594 202.671875 221.019531 201.492188 220.359375 200.714844 C 219.699219 199.941406 218.546875 199.855469 217.769531 200.515625 " fill-opacity="1" fill-rule="nonzero"/></svg>